<svg width="428" height="360" viewBox="0 0 428 360" fill="none" xmlns="http://www.w3.org/2000/svg">
<g clip-path="url(#clip0_1080_53567)">
<mask id="mask0_1080_53567" style="mask-type:luminance" maskUnits="userSpaceOnUse" x="0" y="0" width="428" height="360">
<path d="M411.379 0.8125H16.6214C7.44164 0.8125 0 9.02872 0 19.1639V341.461C0 351.596 7.44164 359.813 16.6214 359.813H411.379C420.558 359.813 428 351.596 428 341.461V19.1639C428 9.02872 420.558 0.8125 411.379 0.8125Z" fill="white"/>
</mask>
<g mask="url(#mask0_1080_53567)">
<path d="M411.379 0.8125H16.6214C7.44164 0.8125 0 9.02872 0 19.1639V341.461C0 351.596 7.44164 359.813 16.6214 359.813H411.379C420.558 359.813 428 351.596 428 341.461V19.1639C428 9.02872 420.558 0.8125 411.379 0.8125Z" fill="#F7F5F2"/>
<g filter="url(#filter0_d_1080_53567)">
<path opacity="0.5" d="M122.755 27.9277H-5.1942C-9.78406 27.9277 -13.5049 32.0358 -13.5049 37.1035V135.169C-13.5049 140.237 -9.78406 144.345 -5.1942 144.345H122.755C127.345 144.345 131.066 140.237 131.066 135.169V37.1035C131.066 32.0358 127.345 27.9277 122.755 27.9277Z" fill="white"/>
<mask id="mask1_1080_53567" style="mask-type:luminance" maskUnits="userSpaceOnUse" x="44" y="51" width="34" height="37">
<path d="M77.7453 51.4312H44.7947V87.8115H77.7453V51.4312Z" fill="white"/>
</mask>
<g mask="url(#mask1_1080_53567)">
<path d="M53.2344 51.4312H64.2594L73.5921 62.1814V83.0788C73.5921 85.6928 71.6731 87.8115 69.3055 87.8115H53.2344C50.8668 87.8115 48.948 85.6927 48.948 83.0788V56.1639C48.948 53.5498 50.8668 51.4312 53.2344 51.4312Z" fill="#0E121B"/>
<path opacity="0.302" fill-rule="evenodd" clip-rule="evenodd" d="M64.2463 51.4312V62.0931H73.5923L64.2463 51.4312Z" fill="white"/>
</g>
<path d="M23.3588 105.816H24.0908V110.234C24.0908 110.691 23.9933 111.098 23.7986 111.456C23.6057 111.812 23.3333 112.094 22.9811 112.3C22.6289 112.504 22.2157 112.607 21.7416 112.607C21.2674 112.607 20.8542 112.504 20.502 112.3C20.1499 112.094 19.8764 111.812 19.6816 111.456C19.4887 111.098 19.3923 110.691 19.3923 110.234V105.816H20.1243V110.169C20.1243 110.495 20.1892 110.785 20.3191 111.039C20.4489 111.291 20.6338 111.49 20.8739 111.636C21.1159 111.779 21.4051 111.851 21.7416 111.851C22.078 111.851 22.3672 111.779 22.6092 111.636C22.8512 111.49 23.0362 111.291 23.164 111.039C23.2939 110.785 23.3588 110.495 23.3588 110.169V105.816ZM25.3665 114.366V107.484H26.0394V108.279H26.122C26.1731 108.192 26.244 108.082 26.3345 107.947C26.427 107.81 26.5588 107.688 26.7299 107.582C26.9031 107.473 27.1373 107.419 27.4324 107.419C27.8141 107.419 28.1504 107.524 28.4417 107.735C28.7329 107.946 28.9601 108.244 29.1234 108.631C29.2867 109.018 29.3684 109.474 29.3684 110C29.3684 110.53 29.2867 110.989 29.1234 111.378C28.9601 111.765 28.7338 112.064 28.4446 112.277C28.1554 112.488 27.822 112.593 27.4441 112.593C27.1529 112.593 26.9198 112.54 26.7447 112.434C26.5696 112.325 26.4348 112.202 26.3404 112.066C26.2459 111.927 26.1731 111.811 26.122 111.72H26.063V114.366H25.3665ZM26.0512 109.987C26.0512 110.365 26.1013 110.698 26.2017 110.987C26.302 111.274 26.4486 111.499 26.6414 111.662C26.8342 111.822 27.0704 111.903 27.3497 111.903C27.6409 111.903 27.8839 111.818 28.0787 111.648C28.2754 111.477 28.423 111.247 28.5214 110.958C28.6217 110.667 28.6718 110.343 28.6718 109.987C28.6718 109.635 28.6227 109.318 28.5243 109.035C28.4279 108.751 28.2813 108.526 28.0846 108.361C27.8898 108.193 27.6448 108.11 27.3497 108.11C27.0664 108.11 26.8283 108.189 26.6355 108.348C26.4427 108.504 26.2972 108.723 26.1988 109.006C26.1004 109.286 26.0512 109.613 26.0512 109.987ZM31.0359 105.816V112.489H30.3394V105.816H31.0359ZM34.0617 112.593C33.6524 112.593 33.2934 112.486 32.9846 112.271C32.6776 112.056 32.4375 111.755 32.2644 111.368C32.0932 110.982 32.0076 110.53 32.0076 110.013C32.0076 109.491 32.0932 109.036 32.2644 108.648C32.4375 108.259 32.6776 107.957 32.9846 107.742C33.2934 107.527 33.6524 107.419 34.0617 107.419C34.4709 107.419 34.829 107.527 35.136 107.742C35.4448 107.957 35.6849 108.259 35.8561 108.648C36.0292 109.036 36.1158 109.491 36.1158 110.013C36.1158 110.53 36.0292 110.982 35.8561 111.368C35.6849 111.755 35.4448 112.056 35.136 112.271C34.829 112.486 34.4709 112.593 34.0617 112.593ZM34.0617 111.903C34.3725 111.903 34.6283 111.815 34.829 111.639C35.0297 111.463 35.1783 111.231 35.2747 110.945C35.3711 110.658 35.4193 110.347 35.4193 110.013C35.4193 109.678 35.3711 109.366 35.2747 109.078C35.1783 108.789 35.0297 108.555 34.829 108.377C34.6283 108.199 34.3725 108.11 34.0617 108.11C33.7508 108.11 33.495 108.199 33.2944 108.377C33.0937 108.555 32.9452 108.789 32.8488 109.078C32.7524 109.366 32.7042 109.678 32.7042 110.013C32.7042 110.347 32.7524 110.658 32.8488 110.945C32.9452 111.231 33.0937 111.463 33.2944 111.639C33.495 111.815 33.7508 111.903 34.0617 111.903ZM38.4215 112.607C38.1343 112.607 37.8735 112.547 37.6394 112.427C37.4053 112.306 37.2194 112.131 37.0816 111.903C36.9439 111.672 36.8751 111.394 36.8751 111.069C36.8751 110.782 36.9262 110.549 37.0285 110.371C37.1309 110.191 37.2676 110.05 37.4388 109.948C37.6099 109.846 37.7988 109.77 38.0053 109.719C38.2139 109.667 38.4235 109.626 38.6339 109.596C38.9094 109.557 39.1327 109.527 39.3039 109.508C39.4771 109.486 39.603 109.45 39.6817 109.4C39.7623 109.35 39.8026 109.263 39.8026 109.139V109.113C39.8026 108.792 39.723 108.542 39.5636 108.364C39.4062 108.186 39.1672 108.097 38.8465 108.097C38.514 108.097 38.2533 108.177 38.0644 108.338C37.8755 108.499 37.7427 108.67 37.666 108.853L37.0049 108.592C37.123 108.288 37.2803 108.051 37.4771 107.882C37.6758 107.71 37.8922 107.591 38.1264 107.523C38.3625 107.454 38.5947 107.419 38.8229 107.419C38.9685 107.419 39.1357 107.439 39.3246 107.478C39.5154 107.515 39.6994 107.592 39.8765 107.709C40.0555 107.826 40.204 108.003 40.3221 108.24C40.4402 108.477 40.4992 108.794 40.4992 109.192V112.489H39.8026V111.811H39.7672C39.72 111.92 39.6413 112.036 39.5312 112.16C39.421 112.284 39.2744 112.389 39.0914 112.476C38.9084 112.563 38.6852 112.607 38.4215 112.607ZM38.5278 111.916C38.8032 111.916 39.0354 111.856 39.2242 111.736C39.415 111.617 39.5587 111.463 39.6551 111.274C39.7535 111.085 39.8026 110.886 39.8026 110.677V109.974C39.7731 110.013 39.7082 110.049 39.6079 110.081C39.5095 110.112 39.3954 110.139 39.2656 110.163C39.1377 110.184 39.0127 110.204 38.8907 110.221C38.7708 110.237 38.6733 110.25 38.5985 110.26C38.4176 110.286 38.2483 110.329 38.0909 110.387C37.9355 110.444 37.8096 110.53 37.7132 110.645C37.6188 110.758 37.5715 110.912 37.5715 111.108C37.5715 111.375 37.6611 111.577 37.8401 111.714C38.0211 111.848 38.2503 111.916 38.5278 111.916ZM43.3907 112.593C43.0129 112.593 42.6795 112.488 42.3903 112.277C42.1011 112.064 41.8748 111.765 41.7115 111.378C41.5482 110.989 41.4665 110.53 41.4665 110C41.4665 109.474 41.5482 109.018 41.7115 108.631C41.8748 108.244 42.102 107.946 42.3932 107.735C42.6844 107.524 43.0208 107.419 43.4025 107.419C43.6976 107.419 43.9308 107.473 44.102 107.582C44.2751 107.688 44.407 107.81 44.4974 107.947C44.5899 108.082 44.6617 108.192 44.7129 108.279H44.7719V105.816H45.4683V112.489H44.7955V111.72H44.7129C44.6617 111.811 44.5889 111.927 44.4944 112.066C44.4 112.202 44.2653 112.325 44.0901 112.434C43.9151 112.54 43.6819 112.593 43.3907 112.593ZM43.4851 111.903C43.7645 111.903 44.0007 111.822 44.1935 111.662C44.3863 111.499 44.5329 111.274 44.6332 110.987C44.7335 110.698 44.7836 110.365 44.7836 109.987C44.7836 109.613 44.7345 109.286 44.6361 109.006C44.5377 108.723 44.3921 108.504 44.1993 108.348C44.0065 108.189 43.7685 108.11 43.4851 108.11C43.1901 108.11 42.9441 108.193 42.7473 108.361C42.5525 108.526 42.406 108.751 42.3076 109.035C42.2112 109.318 42.163 109.635 42.163 109.987C42.163 110.343 42.2122 110.667 42.3106 110.958C42.4109 111.247 42.5585 111.477 42.7532 111.648C42.95 111.818 43.1939 111.903 43.4851 111.903ZM50.8368 112.593C50.4276 112.593 50.0685 112.486 49.7597 112.271C49.4527 112.056 49.2126 111.755 49.0395 111.368C48.8683 110.982 48.7827 110.53 48.7827 110.013C48.7827 109.491 48.8683 109.036 49.0395 108.648C49.2126 108.259 49.4527 107.957 49.7597 107.742C50.0685 107.527 50.4276 107.419 50.8368 107.419C51.246 107.419 51.6041 107.527 51.9111 107.742C52.2199 107.957 52.46 108.259 52.6312 108.648C52.8043 109.036 52.8909 109.491 52.8909 110.013C52.8909 110.53 52.8043 110.982 52.6312 111.368C52.46 111.755 52.2199 112.056 51.9111 112.271C51.6041 112.486 51.246 112.593 50.8368 112.593ZM50.8368 111.903C51.1476 111.903 51.4034 111.815 51.6041 111.639C51.8048 111.463 51.9534 111.231 52.0498 110.945C52.1462 110.658 52.1944 110.347 52.1944 110.013C52.1944 109.678 52.1462 109.366 52.0498 109.078C51.9534 108.789 51.8048 108.555 51.6041 108.377C51.4034 108.199 51.1476 108.11 50.8368 108.11C50.5259 108.11 50.2701 108.199 50.0695 108.377C49.8688 108.555 49.7203 108.789 49.6239 109.078C49.5275 109.366 49.4793 109.678 49.4793 110.013C49.4793 110.347 49.5275 110.658 49.6239 110.945C49.7203 111.231 49.8688 111.463 50.0695 111.639C50.2701 111.815 50.5259 111.903 50.8368 111.903ZM54.5592 109.478V112.489H53.8626V107.484H54.5355V108.266H54.5945C54.7008 108.012 54.8621 107.808 55.0786 107.654C55.295 107.497 55.5743 107.419 55.9167 107.419C56.2236 107.419 56.4921 107.489 56.7223 107.628C56.9526 107.764 57.1316 107.973 57.2595 108.253C57.3874 108.531 57.4513 108.883 57.4513 109.309V112.489H56.7549V109.361C56.7549 108.968 56.6624 108.662 56.4774 108.442C56.2925 108.221 56.0387 108.11 55.716 108.11C55.4937 108.11 55.295 108.163 55.1198 108.27C54.9468 108.376 54.81 108.531 54.7096 108.736C54.6093 108.94 54.5592 109.187 54.5592 109.478ZM60.5332 112.593C60.0965 112.593 59.7197 112.487 59.403 112.274C59.0881 112.059 58.8451 111.759 58.674 111.375C58.5048 110.988 58.4201 110.538 58.4201 110.026C58.4201 109.513 58.5048 109.061 58.674 108.67C58.8451 108.277 59.0832 107.971 59.3882 107.751C59.6951 107.53 60.0532 107.419 60.4624 107.419C60.6985 107.419 60.9317 107.462 61.1618 107.549C61.392 107.636 61.6015 107.777 61.7905 107.973C61.9794 108.166 62.1299 108.423 62.242 108.742C62.3542 109.061 62.4102 109.455 62.4102 109.922V110.247H58.916V109.583H61.7019C61.7019 109.3 61.6508 109.048 61.5485 108.827C61.4481 108.605 61.3045 108.43 61.1176 108.302C60.9326 108.174 60.7143 108.11 60.4624 108.11C60.185 108.11 59.9449 108.186 59.7423 108.338C59.5416 108.488 59.3872 108.683 59.2789 108.924C59.1708 109.166 59.1167 109.424 59.1167 109.7V110.143C59.1167 110.521 59.1757 110.841 59.2937 111.104C59.4138 111.365 59.58 111.564 59.7925 111.701C60.005 111.835 60.2519 111.903 60.5332 111.903C60.7163 111.903 60.8815 111.874 61.029 111.818C61.1785 111.759 61.3075 111.672 61.4157 111.557C61.5238 111.44 61.6075 111.294 61.6665 111.121L62.3394 111.329C62.2686 111.581 62.1495 111.803 61.9823 111.994C61.815 112.183 61.6085 112.331 61.3625 112.437C61.1166 112.541 60.8402 112.593 60.5332 112.593ZM67.336 112.593C66.9582 112.593 66.6247 112.488 66.3355 112.277C66.0463 112.064 65.82 111.765 65.6567 111.378C65.4934 110.989 65.4118 110.53 65.4118 110C65.4118 109.474 65.4934 109.018 65.6567 108.631C65.82 108.244 66.0472 107.946 66.3384 107.735C66.6296 107.524 66.9661 107.419 67.3478 107.419C67.6429 107.419 67.8761 107.473 68.0472 107.582C68.2204 107.688 68.3522 107.81 68.4427 107.947C68.5351 108.082 68.607 108.192 68.6581 108.279H68.7172V105.816H69.4137V112.489H68.7407V111.72H68.6581C68.607 111.811 68.5342 111.927 68.4398 112.066C68.3454 112.202 68.2105 112.325 68.0355 112.434C67.8603 112.54 67.6272 112.593 67.336 112.593ZM67.4304 111.903C67.7098 111.903 67.9459 111.822 68.1387 111.662C68.3315 111.499 68.4781 111.274 68.5785 110.987C68.6788 110.698 68.729 110.365 68.729 109.987C68.729 109.613 68.6798 109.286 68.5814 109.006C68.483 108.723 68.3375 108.504 68.1446 108.348C67.9518 108.189 67.7137 108.11 67.4304 108.11C67.1353 108.11 66.8893 108.193 66.6926 108.361C66.4978 108.526 66.3513 108.751 66.2529 109.035C66.1565 109.318 66.1082 109.635 66.1082 109.987C66.1082 110.343 66.1575 110.667 66.2558 110.958C66.3562 111.247 66.5037 111.477 66.6985 111.648C66.8952 111.818 67.1393 111.903 67.4304 111.903ZM72.5361 112.593C72.1269 112.593 71.7678 112.486 71.4589 112.271C71.152 112.056 70.912 111.755 70.7388 111.368C70.5676 110.982 70.482 110.53 70.482 110.013C70.482 109.491 70.5676 109.036 70.7388 108.648C70.912 108.259 71.152 107.957 71.4589 107.742C71.7678 107.527 72.1269 107.419 72.5361 107.419C72.9454 107.419 73.3034 107.527 73.6104 107.742C73.9193 107.957 74.1593 108.259 74.3305 108.648C74.5037 109.036 74.5902 109.491 74.5902 110.013C74.5902 110.53 74.5037 110.982 74.3305 111.368C74.1593 111.755 73.9193 112.056 73.6104 112.271C73.3034 112.486 72.9454 112.593 72.5361 112.593ZM72.5361 111.903C72.847 111.903 73.1028 111.815 73.3034 111.639C73.5041 111.463 73.6527 111.231 73.7491 110.945C73.8455 110.658 73.8937 110.347 73.8937 110.013C73.8937 109.678 73.8455 109.366 73.7491 109.078C73.6527 108.789 73.5041 108.555 73.3034 108.377C73.1028 108.199 72.847 108.11 72.5361 108.11C72.2253 108.11 71.9695 108.199 71.7688 108.377C71.5681 108.555 71.4196 108.789 71.3232 109.078C71.2268 109.366 71.1786 109.678 71.1786 110.013C71.1786 110.347 71.2268 110.658 71.3232 110.945C71.4196 111.231 71.5681 111.463 71.7688 111.639C71.9695 111.815 72.2253 111.903 72.5361 111.903ZM77.4035 112.593C76.9786 112.593 76.6126 112.483 76.3056 112.261C75.9988 112.039 75.7626 111.734 75.5974 111.345C75.4321 110.957 75.3495 110.512 75.3495 110.013C75.3495 109.504 75.4341 109.056 75.6033 108.667C75.7745 108.276 76.0125 107.971 76.3175 107.751C76.6243 107.53 76.9824 107.419 77.3917 107.419C77.7104 107.419 77.9977 107.484 78.2534 107.615C78.5092 107.745 78.7187 107.927 78.882 108.162C79.0453 108.397 79.1467 108.67 79.1861 108.983H78.4896C78.4365 108.755 78.3184 108.553 78.1354 108.377C77.9544 108.199 77.7105 108.11 77.4035 108.11C77.132 108.11 76.8939 108.188 76.6893 108.345C76.4867 108.499 76.3283 108.717 76.2142 108.999C76.102 109.28 76.0459 109.609 76.0459 109.987C76.0459 110.373 76.1011 110.71 76.2112 110.997C76.3234 111.284 76.4808 111.506 76.6835 111.665C76.888 111.823 77.1281 111.903 77.4035 111.903C77.5845 111.903 77.7488 111.868 77.8964 111.798C78.0439 111.729 78.1689 111.629 78.2712 111.499C78.3735 111.368 78.4463 111.212 78.4896 111.029H79.1861C79.1467 111.325 79.0493 111.591 78.8939 111.828C78.7405 112.062 78.5368 112.249 78.283 112.388C78.0311 112.525 77.738 112.593 77.4035 112.593ZM82.9697 110.443V107.484H83.6661V112.489H82.9697V111.642H82.9224C82.8161 111.896 82.6509 112.112 82.4266 112.29C82.2023 112.466 81.919 112.554 81.5767 112.554C81.2933 112.554 81.0415 112.486 80.8211 112.349C80.6008 112.21 80.4276 112.001 80.3017 111.723C80.1758 111.443 80.1129 111.09 80.1129 110.664V107.484H80.8093V110.612C80.8093 110.977 80.9017 111.268 81.0868 111.486C81.2736 111.703 81.5117 111.811 81.801 111.811C81.974 111.811 82.1501 111.763 82.3292 111.665C82.5102 111.567 82.6617 111.417 82.7837 111.215C82.9076 111.013 82.9697 110.756 82.9697 110.443ZM84.8504 112.489V107.484H85.5232V108.266H85.5823C85.6768 107.999 85.8291 107.792 86.0397 107.644C86.2502 107.494 86.503 107.419 86.7982 107.419C87.0973 107.419 87.3462 107.494 87.5449 107.644C87.7455 107.792 87.9019 107.999 88.0141 108.266H88.0613C88.1774 108.008 88.3515 107.802 88.5837 107.65C88.8158 107.496 89.0942 107.419 89.4189 107.419C89.8242 107.419 90.1557 107.559 90.4134 107.839C90.6712 108.117 90.8001 108.551 90.8001 109.139V112.489H90.1035V109.139C90.1035 108.77 90.0121 108.506 89.8291 108.348C89.6461 108.189 89.4307 108.11 89.1828 108.11C88.864 108.11 88.6172 108.216 88.442 108.429C88.2669 108.64 88.1794 108.907 88.1794 109.231V112.489H87.471V109.061C87.471 108.777 87.3874 108.548 87.2203 108.374C87.053 108.198 86.8376 108.11 86.5739 108.11C86.3929 108.11 86.2237 108.163 86.0663 108.27C85.9108 108.376 85.7849 108.524 85.6885 108.713C85.5941 108.9 85.5469 109.116 85.5469 109.361V112.489H84.8504ZM93.8827 112.593C93.4459 112.593 93.0691 112.487 92.7524 112.274C92.4376 112.059 92.1946 111.759 92.0234 111.375C91.8542 110.988 91.7696 110.538 91.7696 110.026C91.7696 109.513 91.8542 109.061 92.0234 108.67C92.1946 108.277 92.4326 107.971 92.7376 107.751C93.0446 107.53 93.4027 107.419 93.8119 107.419C94.048 107.419 94.2811 107.462 94.5113 107.549C94.7415 107.636 94.951 107.777 95.1399 107.973C95.3288 108.166 95.4793 108.423 95.5915 108.742C95.7036 109.061 95.7597 109.455 95.7597 109.922V110.247H92.2655V109.583H95.0514C95.0514 109.3 95.0002 109.048 94.898 108.827C94.7976 108.605 94.654 108.43 94.4671 108.302C94.2822 108.174 94.0637 108.11 93.8119 108.11C93.5345 108.11 93.2944 108.186 93.0918 108.338C92.8911 108.488 92.7367 108.683 92.6284 108.924C92.5202 109.166 92.4661 109.424 92.4661 109.7V110.143C92.4661 110.521 92.5252 110.841 92.6432 111.104C92.7632 111.365 92.9295 111.564 93.1419 111.701C93.3545 111.835 93.6013 111.903 93.8827 111.903C94.0657 111.903 94.2309 111.874 94.3786 111.818C94.528 111.759 94.6569 111.672 94.7651 111.557C94.8734 111.44 94.957 111.294 95.016 111.121L95.6888 111.329C95.618 111.581 95.499 111.803 95.3318 111.994C95.1645 112.183 94.9579 112.331 94.712 112.437C94.466 112.541 94.1896 112.593 93.8827 112.593ZM97.4242 109.478V112.489H96.7278V107.484H97.4006V108.266H97.4596C97.5659 108.012 97.7272 107.808 97.9436 107.654C98.1601 107.497 98.4395 107.419 98.7819 107.419C99.0887 107.419 99.3573 107.489 99.5875 107.628C99.8177 107.764 99.9968 107.973 100.125 108.253C100.253 108.531 100.316 108.883 100.316 109.309V112.489H99.62V109.361C99.62 108.968 99.5275 108.662 99.3425 108.442C99.1576 108.221 98.9038 108.11 98.5812 108.11C98.3588 108.11 98.1601 108.163 97.985 108.27C97.8118 108.376 97.6751 108.531 97.5747 108.736C97.4744 108.94 97.4242 109.187 97.4242 109.478ZM103.469 107.484V108.136H101.12V107.484H103.469ZM101.805 106.285H102.501V111.055C102.501 111.273 102.53 111.436 102.587 111.544C102.646 111.651 102.721 111.722 102.811 111.759C102.904 111.794 103.001 111.811 103.103 111.811C103.18 111.811 103.243 111.807 103.292 111.798C103.341 111.787 103.381 111.779 103.41 111.772L103.552 112.463C103.505 112.483 103.439 112.502 103.354 112.522C103.27 112.543 103.162 112.554 103.032 112.554C102.836 112.554 102.643 112.508 102.454 112.414C102.267 112.321 102.112 112.179 101.988 111.987C101.866 111.796 101.805 111.555 101.805 111.264V106.285Z" fill="#0E121B"/>
</g>
<g filter="url(#filter1_d_1080_53567)">
<path opacity="0.5" d="M165.347 216.03H37.3981C32.8082 216.03 29.0874 220.138 29.0874 225.206V323.271C29.0874 328.339 32.8082 332.447 37.3981 332.447H165.347C169.937 332.447 173.658 328.339 173.658 323.271V225.206C173.658 220.138 169.937 216.03 165.347 216.03Z" fill="white"/>
<mask id="mask2_1080_53567" style="mask-type:luminance" maskUnits="userSpaceOnUse" x="87" y="239" width="34" height="37">
<path d="M120.338 239.533H87.386V275.914H120.338V239.533Z" fill="white"/>
</mask>
<g mask="url(#mask2_1080_53567)">
<path d="M118.279 253.176H115.533V250.144C115.533 249.845 115.48 249.549 115.376 249.274C115.273 248.997 115.122 248.746 114.931 248.535C114.739 248.324 114.512 248.157 114.262 248.043C114.012 247.928 113.744 247.87 113.473 247.87H103.004C102.698 247.87 102.395 247.795 102.118 247.65C101.841 247.504 101.598 247.292 101.405 247.029L100.059 245.202C99.8025 244.852 99.4783 244.569 99.1101 244.375C98.7418 244.181 98.339 244.08 97.9309 244.08H90.1323C89.8618 244.08 89.5937 244.139 89.3437 244.252C89.0936 244.367 88.8665 244.535 88.6752 244.746C88.4838 244.957 88.3322 245.208 88.2288 245.484C88.1254 245.759 88.0724 246.055 88.0728 246.355V268.768C88.0713 269.108 88.132 269.447 88.251 269.762C88.3702 270.076 88.5453 270.362 88.7661 270.602C88.9826 270.845 89.2412 271.039 89.5265 271.17C89.8119 271.301 90.1182 271.369 90.4275 271.367H113.535C114.045 271.367 114.541 271.184 114.949 270.847C115.359 270.509 115.657 270.035 115.8 269.495L119.597 255.116C119.656 254.89 119.667 254.652 119.628 254.421C119.591 254.19 119.503 253.972 119.376 253.784C119.248 253.596 119.083 253.442 118.892 253.337C118.701 253.232 118.492 253.177 118.279 253.176Z" fill="#0E121B"/>
<path d="M118.279 253.176H98.7642C98.2547 253.176 97.759 253.359 97.3514 253.697C96.9439 254.034 96.6465 254.509 96.504 255.049L92.687 269.496C92.5444 270.036 92.2471 270.51 91.8397 270.847C91.4323 271.184 90.9367 271.367 90.4275 271.367H113.538C114.048 271.367 114.543 271.184 114.95 270.847C115.359 270.51 115.656 270.035 115.798 269.495L119.597 255.116C119.656 254.89 119.668 254.652 119.629 254.421C119.592 254.19 119.505 253.971 119.377 253.783C119.249 253.594 119.084 253.442 118.893 253.336C118.703 253.231 118.492 253.176 118.279 253.176Z" fill="#5E5E5E"/>
</g>
<path d="M55.9791 293.918H56.711V298.338C56.711 298.793 56.6136 299.201 56.4188 299.559C56.226 299.916 55.9535 300.197 55.6014 300.403C55.2492 300.607 54.836 300.709 54.3618 300.709C53.8877 300.709 53.4745 300.607 53.1223 300.403C52.7701 300.197 52.4967 299.916 52.3019 299.559C52.1091 299.201 52.0127 298.793 52.0127 298.338V293.918H52.7446V298.272C52.7446 298.598 52.8095 298.888 52.9393 299.142C53.0692 299.394 53.2541 299.592 53.4942 299.738C53.7362 299.881 54.0254 299.954 54.3618 299.954C54.6983 299.954 54.9875 299.881 55.2296 299.738C55.4715 299.592 55.6564 299.394 55.7843 299.142C55.9141 298.888 55.9791 298.598 55.9791 298.272V293.918ZM57.9867 302.469V295.587H58.6597V296.382H58.7423C58.7935 296.295 58.8642 296.185 58.9548 296.049C59.0473 295.913 59.1791 295.791 59.3502 295.685C59.5234 295.577 59.7575 295.522 60.0527 295.522C60.4343 295.522 60.7708 295.627 61.062 295.838C61.3532 296.049 61.5804 296.348 61.7437 296.734C61.907 297.121 61.9886 297.577 61.9886 298.102C61.9886 298.632 61.907 299.092 61.7437 299.481C61.5804 299.868 61.3541 300.167 61.0649 300.38C60.7757 300.591 60.4422 300.697 60.0644 300.697C59.7732 300.697 59.5401 300.643 59.3649 300.536C59.1899 300.428 59.0552 300.306 58.9606 300.168C58.8662 300.029 58.7935 299.915 58.7423 299.823H58.6833V302.469H57.9867ZM58.6714 298.09C58.6714 298.467 58.7216 298.801 58.8219 299.09C58.9223 299.377 59.0689 299.601 59.2617 299.764C59.4545 299.925 59.6906 300.005 59.97 300.005C60.2612 300.005 60.5041 299.92 60.6989 299.752C60.8957 299.58 61.0433 299.349 61.1417 299.06C61.242 298.77 61.2922 298.445 61.2922 298.09C61.2922 297.738 61.243 297.421 61.1446 297.138C61.0482 296.853 60.9016 296.629 60.7048 296.463C60.5101 296.296 60.2651 296.212 59.97 296.212C59.6867 296.212 59.4486 296.292 59.2558 296.451C59.063 296.607 58.9174 296.827 58.819 297.109C58.7207 297.389 58.6714 297.716 58.6714 298.09ZM63.6562 293.918V300.592H62.9596V293.918H63.6562ZM66.682 300.697C66.2728 300.697 65.9137 300.589 65.6048 300.373C65.2978 300.159 65.0579 299.858 64.8847 299.471C64.7135 299.084 64.6279 298.632 64.6279 298.116C64.6279 297.594 64.7135 297.139 64.8847 296.75C65.0579 296.361 65.2978 296.06 65.6048 295.844C65.9137 295.63 66.2728 295.522 66.682 295.522C67.0912 295.522 67.4493 295.63 67.7562 295.844C68.0651 296.06 68.3052 296.361 68.4764 296.75C68.6494 297.139 68.7361 297.594 68.7361 298.116C68.7361 298.632 68.6494 299.084 68.4764 299.471C68.3052 299.858 68.0651 300.159 67.7562 300.373C67.4493 300.589 67.0912 300.697 66.682 300.697ZM66.682 300.005C66.9928 300.005 67.2487 299.918 67.4493 299.741C67.65 299.566 67.7985 299.334 67.8949 299.048C67.9913 298.761 68.0395 298.45 68.0395 298.116C68.0395 297.781 67.9913 297.469 67.8949 297.18C67.7985 296.891 67.65 296.658 67.4493 296.479C67.2487 296.302 66.9928 296.212 66.682 296.212C66.3712 296.212 66.1154 296.302 65.9147 296.479C65.714 296.658 65.5654 296.891 65.469 297.18C65.3726 297.469 65.3244 297.781 65.3244 298.116C65.3244 298.45 65.3726 298.761 65.469 299.048C65.5654 299.334 65.714 299.566 65.9147 299.741C66.1154 299.918 66.3712 300.005 66.682 300.005ZM71.0418 300.709C70.7545 300.709 70.4938 300.65 70.2597 300.531C70.0256 300.409 69.8396 300.233 69.7019 300.005C69.5642 299.776 69.4954 299.497 69.4954 299.171C69.4954 298.885 69.5465 298.652 69.6488 298.474C69.7511 298.294 69.8878 298.153 70.059 298.051C70.2302 297.949 70.4191 297.872 70.6256 297.823C70.8342 297.77 71.0437 297.729 71.2543 297.699C71.5297 297.66 71.7531 297.63 71.9241 297.61C72.0973 297.589 72.2232 297.553 72.302 297.503C72.3826 297.453 72.423 297.366 72.423 297.242V297.216C72.423 296.895 72.3432 296.645 72.1839 296.467C72.0265 296.289 71.7874 296.2 71.4667 296.2C71.1342 296.2 70.8736 296.28 70.6847 296.44C70.4957 296.602 70.363 296.773 70.2862 296.955L69.6252 296.695C69.7432 296.391 69.9006 296.154 70.0974 295.985C70.2961 295.813 70.5125 295.694 70.7466 295.626C70.9828 295.557 71.2149 295.522 71.4432 295.522C71.5887 295.522 71.756 295.541 71.9448 295.58C72.1357 295.618 72.3196 295.695 72.4968 295.812C72.6757 295.929 72.8243 296.107 72.9424 296.343C73.0604 296.58 73.1194 296.897 73.1194 297.295V300.592H72.423V299.915H72.3876C72.3403 300.022 72.2616 300.139 72.1514 300.263C72.0412 300.387 71.8946 300.493 71.7117 300.579C71.5288 300.666 71.3054 300.709 71.0418 300.709ZM71.148 300.019C71.4234 300.019 71.6556 299.959 71.8445 299.839C72.0353 299.72 72.179 299.566 72.2754 299.377C72.3738 299.187 72.423 298.989 72.423 298.78V298.076C72.3934 298.116 72.3285 298.152 72.2282 298.184C72.1298 298.215 72.0157 298.241 71.8858 298.265C71.7579 298.287 71.633 298.307 71.511 298.324C71.391 298.34 71.2936 298.352 71.2189 298.363C71.0378 298.389 70.8686 298.432 70.7112 298.49C70.5558 298.547 70.4299 298.632 70.3335 298.748C70.2391 298.861 70.1918 299.015 70.1918 299.21C70.1918 299.478 70.2813 299.679 70.4603 299.817C70.6414 299.951 70.8706 300.019 71.148 300.019ZM76.011 300.697C75.6332 300.697 75.2997 300.591 75.0105 300.38C74.7213 300.167 74.4951 299.868 74.3318 299.481C74.1685 299.092 74.0868 298.632 74.0868 298.102C74.0868 297.577 74.1685 297.121 74.3318 296.734C74.4951 296.348 74.7222 296.049 75.0134 295.838C75.3046 295.627 75.6411 295.522 76.0228 295.522C76.3179 295.522 76.551 295.577 76.7222 295.685C76.8954 295.791 77.0272 295.913 77.1177 296.049C77.2102 296.185 77.2819 296.295 77.3332 296.382H77.3922V293.918H78.0887V300.592H77.4157V299.823H77.3332C77.2819 299.915 77.2092 300.029 77.1148 300.168C77.0203 300.306 76.8855 300.428 76.7104 300.536C76.5353 300.643 76.3022 300.697 76.011 300.697ZM76.1055 300.005C76.3848 300.005 76.6209 299.925 76.8137 299.764C77.0065 299.601 77.1531 299.377 77.2535 299.09C77.3538 298.801 77.404 298.467 77.404 298.09C77.404 297.716 77.3548 297.389 77.2564 297.109C77.158 296.827 77.0125 296.607 76.8197 296.451C76.6269 296.292 76.3888 296.212 76.1055 296.212C75.8103 296.212 75.5643 296.296 75.3676 296.463C75.1728 296.629 75.0262 296.853 74.9278 297.138C74.8314 297.421 74.7832 297.738 74.7832 298.09C74.7832 298.445 74.8325 298.77 74.9308 299.06C75.0312 299.349 75.1787 299.58 75.3735 299.752C75.5703 299.92 75.8143 300.005 76.1055 300.005ZM81.6155 300.592V295.587H82.2884V296.369H82.3474C82.4418 296.102 82.5943 295.895 82.8049 295.747C83.0154 295.597 83.2682 295.522 83.5634 295.522C83.8624 295.522 84.1112 295.597 84.31 295.747C84.5107 295.895 84.6671 296.102 84.7792 296.369H84.8265C84.9425 296.11 85.1166 295.906 85.3488 295.753C85.581 295.599 85.8594 295.522 86.184 295.522C86.5894 295.522 86.9209 295.662 87.1786 295.943C87.4363 296.22 87.5653 296.654 87.5653 297.242V300.592H86.8687V297.242C86.8687 296.873 86.7772 296.609 86.5943 296.451C86.4113 296.292 86.1959 296.212 85.9479 296.212C85.6292 296.212 85.3823 296.319 85.2072 296.532C85.0321 296.743 84.9445 297.011 84.9445 297.334V300.592H84.2362V297.164C84.2362 296.88 84.1526 296.65 83.9853 296.477C83.8181 296.301 83.6027 296.212 83.3391 296.212C83.158 296.212 82.9889 296.266 82.8314 296.373C82.676 296.479 82.5501 296.626 82.4537 296.816C82.3592 297.002 82.312 297.218 82.312 297.464V300.592H81.6155ZM91.604 298.546V295.587H92.3006V300.592H91.604V299.745H91.5569C91.4506 299.999 91.2853 300.215 91.061 300.393C90.8368 300.57 90.5534 300.657 90.2111 300.657C89.9278 300.657 89.6759 300.589 89.4555 300.453C89.2352 300.313 89.062 300.104 88.9361 299.826C88.8102 299.546 88.7472 299.193 88.7472 298.768V295.587H89.4438V298.715C89.4438 299.08 89.5362 299.371 89.7212 299.589C89.908 299.806 90.1461 299.915 90.4354 299.915C90.6085 299.915 90.7846 299.865 90.9636 299.768C91.1447 299.67 91.2961 299.52 91.4181 299.318C91.542 299.116 91.604 298.858 91.604 298.546ZM94.1813 293.918V300.592H93.4848V293.918H94.1813ZM97.337 295.587V296.239H94.9877V295.587H97.337ZM95.6724 294.389H96.369V299.159C96.369 299.376 96.3974 299.538 96.4546 299.647C96.5136 299.754 96.5884 299.825 96.6789 299.862C96.7713 299.897 96.8687 299.915 96.971 299.915C97.0478 299.915 97.1107 299.91 97.1599 299.901C97.2091 299.891 97.2484 299.881 97.278 299.876L97.4197 300.566C97.3724 300.586 97.3064 300.605 97.2219 300.625C97.1373 300.646 97.0301 300.657 96.9002 300.657C96.7035 300.657 96.5107 300.611 96.3217 300.517C96.1348 300.424 95.9794 300.282 95.8555 300.09C95.7334 299.9 95.6724 299.658 95.6724 299.366V294.389ZM98.2932 300.592V295.587H98.9897V300.592H98.2932ZM98.6474 294.753C98.5117 294.753 98.3946 294.702 98.2962 294.6C98.1998 294.498 98.1516 294.375 98.1516 294.231C98.1516 294.088 98.1998 293.965 98.2962 293.863C98.3946 293.761 98.5117 293.711 98.6474 293.711C98.7831 293.711 98.8993 293.761 98.9957 293.863C99.094 293.965 99.1432 294.088 99.1432 294.231C99.1432 294.375 99.094 294.498 98.9957 294.6C98.8993 294.702 98.7831 294.753 98.6474 294.753ZM100.174 302.469V295.587H100.847V296.382H100.929C100.981 296.295 101.052 296.185 101.142 296.049C101.234 295.913 101.366 295.791 101.537 295.685C101.711 295.577 101.945 295.522 102.24 295.522C102.622 295.522 102.958 295.627 103.249 295.838C103.54 296.049 103.768 296.348 103.931 296.734C104.094 297.121 104.176 297.577 104.176 298.102C104.176 298.632 104.094 299.092 103.931 299.481C103.768 299.868 103.541 300.167 103.252 300.38C102.963 300.591 102.629 300.697 102.252 300.697C101.961 300.697 101.727 300.643 101.552 300.536C101.377 300.428 101.242 300.306 101.148 300.168C101.053 300.029 100.981 299.915 100.929 299.823H100.87V302.469H100.174ZM100.859 298.09C100.859 298.467 100.909 298.801 101.009 299.09C101.109 299.377 101.256 299.601 101.449 299.764C101.642 299.925 101.878 300.005 102.157 300.005C102.448 300.005 102.691 299.92 102.886 299.752C103.083 299.58 103.23 299.349 103.329 299.06C103.429 298.77 103.479 298.445 103.479 298.09C103.479 297.738 103.43 297.421 103.332 297.138C103.235 296.853 103.089 296.629 102.892 296.463C102.697 296.296 102.452 296.212 102.157 296.212C101.874 296.212 101.636 296.292 101.443 296.451C101.25 296.607 101.105 296.827 101.006 297.109C100.908 297.389 100.859 297.716 100.859 298.09ZM105.844 293.918V300.592H105.147V293.918H105.844ZM108.928 300.697C108.492 300.697 108.115 300.59 107.798 300.377C107.483 300.162 107.24 299.862 107.069 299.478C106.899 299.091 106.815 298.641 106.815 298.129C106.815 297.616 106.899 297.164 107.069 296.773C107.24 296.38 107.478 296.073 107.783 295.854C108.09 295.633 108.448 295.522 108.858 295.522C109.093 295.522 109.327 295.565 109.557 295.653C109.787 295.74 109.996 295.881 110.185 296.076C110.374 296.27 110.525 296.525 110.637 296.845C110.749 297.164 110.805 297.558 110.805 298.024V298.35H107.311V297.686H110.097C110.097 297.403 110.046 297.152 109.943 296.929C109.843 296.708 109.699 296.533 109.513 296.405C109.328 296.276 109.109 296.212 108.858 296.212C108.58 296.212 108.34 296.289 108.138 296.44C107.937 296.591 107.782 296.786 107.674 297.028C107.566 297.269 107.511 297.527 107.511 297.803V298.246C107.511 298.624 107.57 298.944 107.689 299.207C107.808 299.468 107.975 299.667 108.187 299.803C108.4 299.939 108.647 300.005 108.928 300.005C109.111 300.005 109.276 299.978 109.424 299.92C109.573 299.862 109.702 299.776 109.81 299.66C109.919 299.543 110.002 299.397 110.062 299.223L110.735 299.432C110.664 299.684 110.545 299.905 110.377 300.097C110.21 300.286 110.003 300.433 109.757 300.54C109.512 300.644 109.236 300.697 108.928 300.697ZM115.73 300.697C115.353 300.697 115.02 300.591 114.73 300.38C114.441 300.167 114.215 299.868 114.052 299.481C113.889 299.092 113.807 298.632 113.807 298.102C113.807 297.577 113.889 297.121 114.052 296.734C114.215 296.348 114.442 296.049 114.733 295.838C115.025 295.627 115.361 295.522 115.743 295.522C116.038 295.522 116.271 295.577 116.442 295.685C116.616 295.791 116.747 295.913 116.838 296.049C116.93 296.185 117.002 296.295 117.053 296.382H117.112V293.918H117.808V300.592H117.136V299.823H117.053C117.002 299.915 116.929 300.029 116.835 300.168C116.74 300.306 116.605 300.428 116.431 300.536C116.255 300.643 116.022 300.697 115.73 300.697ZM115.825 300.005C116.104 300.005 116.341 299.925 116.533 299.764C116.727 299.601 116.873 299.377 116.973 299.09C117.074 298.801 117.124 298.467 117.124 298.09C117.124 297.716 117.075 297.389 116.976 297.109C116.878 296.827 116.732 296.607 116.54 296.451C116.346 296.292 116.109 296.212 115.825 296.212C115.53 296.212 115.285 296.296 115.087 296.463C114.893 296.629 114.747 296.853 114.648 297.138C114.551 297.421 114.504 297.738 114.504 298.09C114.504 298.445 114.552 298.77 114.651 299.06C114.751 299.349 114.898 299.58 115.094 299.752C115.29 299.92 115.534 300.005 115.825 300.005ZM120.931 300.697C120.522 300.697 120.163 300.589 119.854 300.373C119.547 300.159 119.307 299.858 119.134 299.471C118.962 299.084 118.877 298.632 118.877 298.116C118.877 297.594 118.962 297.139 119.134 296.75C119.307 296.361 119.547 296.06 119.854 295.844C120.163 295.63 120.522 295.522 120.931 295.522C121.34 295.522 121.699 295.63 122.005 295.844C122.315 296.06 122.555 296.361 122.726 296.75C122.898 297.139 122.986 297.594 122.986 298.116C122.986 298.632 122.898 299.084 122.726 299.471C122.555 299.858 122.315 300.159 122.005 300.373C121.699 300.589 121.34 300.697 120.931 300.697ZM120.931 300.005C121.241 300.005 121.498 299.918 121.699 299.741C121.899 299.566 122.048 299.334 122.144 299.048C122.241 298.761 122.289 298.45 122.289 298.116C122.289 297.781 122.241 297.469 122.144 297.18C122.048 296.891 121.899 296.658 121.699 296.479C121.498 296.302 121.241 296.212 120.931 296.212C120.62 296.212 120.365 296.302 120.164 296.479C119.963 296.658 119.814 296.891 119.719 297.18C119.622 297.469 119.573 297.781 119.573 298.116C119.573 298.45 119.622 298.761 119.719 299.048C119.814 299.334 119.963 299.566 120.164 299.741C120.365 299.918 120.62 300.005 120.931 300.005ZM125.799 300.697C125.374 300.697 125.007 300.586 124.701 300.364C124.393 300.143 124.158 299.838 123.992 299.449C123.827 299.06 123.744 298.615 123.744 298.116C123.744 297.607 123.829 297.158 123.999 296.77C124.169 296.379 124.408 296.073 124.712 295.854C125.02 295.633 125.377 295.522 125.786 295.522C126.105 295.522 126.393 295.587 126.649 295.718C126.904 295.848 127.114 296.03 127.277 296.265C127.44 296.499 127.542 296.773 127.581 297.086H126.884C126.831 296.858 126.713 296.656 126.53 296.479C126.349 296.302 126.105 296.212 125.799 296.212C125.527 296.212 125.289 296.291 125.084 296.447C124.882 296.602 124.724 296.82 124.609 297.102C124.497 297.382 124.441 297.711 124.441 298.09C124.441 298.476 124.496 298.814 124.606 299.1C124.718 299.387 124.875 299.61 125.078 299.768C125.283 299.926 125.524 300.005 125.799 300.005C125.98 300.005 126.144 299.971 126.291 299.901C126.439 299.832 126.563 299.732 126.666 299.601C126.768 299.471 126.841 299.315 126.884 299.132H127.581C127.542 299.428 127.444 299.694 127.289 299.931C127.136 300.166 126.932 300.352 126.678 300.492C126.426 300.628 126.133 300.697 125.799 300.697ZM131.365 298.546V295.587H132.061V300.592H131.365V299.745H131.317C131.211 299.999 131.046 300.215 130.822 300.393C130.597 300.57 130.314 300.657 129.972 300.657C129.688 300.657 129.437 300.589 129.217 300.453C128.995 300.313 128.823 300.104 128.697 299.826C128.57 299.546 128.508 299.193 128.508 298.768V295.587H129.204V298.715C129.204 299.08 129.297 299.371 129.482 299.589C129.669 299.806 129.906 299.915 130.196 299.915C130.369 299.915 130.545 299.865 130.724 299.768C130.905 299.67 131.056 299.52 131.179 299.318C131.303 299.116 131.365 298.858 131.365 298.546ZM133.245 300.592V295.587H133.918V296.369H133.978C134.072 296.102 134.224 295.895 134.435 295.747C134.646 295.597 134.898 295.522 135.193 295.522C135.492 295.522 135.742 295.597 135.94 295.747C136.14 295.895 136.297 296.102 136.41 296.369H136.456C136.573 296.11 136.746 295.906 136.979 295.753C137.21 295.599 137.489 295.522 137.814 295.522C138.219 295.522 138.551 295.662 138.808 295.943C139.066 296.22 139.195 296.654 139.195 297.242V300.592H138.499V297.242C138.499 296.873 138.407 296.609 138.224 296.451C138.042 296.292 137.825 296.212 137.578 296.212C137.259 296.212 137.012 296.319 136.838 296.532C136.662 296.743 136.575 297.011 136.575 297.334V300.592H135.866V297.164C135.866 296.88 135.782 296.65 135.615 296.477C135.448 296.301 135.233 296.212 134.969 296.212C134.788 296.212 134.619 296.266 134.462 296.373C134.306 296.479 134.18 296.626 134.084 296.816C133.989 297.002 133.942 297.218 133.942 297.464V300.592H133.245ZM142.278 300.697C141.841 300.697 141.464 300.59 141.148 300.377C140.833 300.162 140.59 299.862 140.418 299.478C140.249 299.091 140.165 298.641 140.165 298.129C140.165 297.616 140.249 297.164 140.418 296.773C140.59 296.38 140.828 296.073 141.133 295.854C141.44 295.633 141.798 295.522 142.207 295.522C142.443 295.522 142.676 295.565 142.906 295.653C143.137 295.74 143.346 295.881 143.535 296.076C143.724 296.27 143.875 296.525 143.987 296.845C144.099 297.164 144.155 297.558 144.155 298.024V298.35H140.66V297.686H143.447C143.447 297.403 143.396 297.152 143.293 296.929C143.192 296.708 143.049 296.533 142.862 296.405C142.677 296.276 142.459 296.212 142.207 296.212C141.93 296.212 141.69 296.289 141.486 296.44C141.286 296.591 141.132 296.786 141.023 297.028C140.915 297.269 140.861 297.527 140.861 297.803V298.246C140.861 298.624 140.92 298.944 141.039 299.207C141.158 299.468 141.324 299.667 141.537 299.803C141.749 299.939 141.996 300.005 142.278 300.005C142.461 300.005 142.626 299.978 142.773 299.92C142.923 299.862 143.052 299.776 143.16 299.66C143.268 299.543 143.352 299.397 143.411 299.223L144.083 299.432C144.013 299.684 143.894 299.905 143.727 300.097C143.56 300.286 143.353 300.433 143.107 300.54C142.861 300.644 142.584 300.697 142.278 300.697ZM145.819 297.582V300.592H145.123V295.587H145.795V296.369H145.855C145.961 296.115 146.123 295.911 146.339 295.757C146.555 295.6 146.834 295.522 147.177 295.522C147.483 295.522 147.753 295.592 147.982 295.73C148.213 295.867 148.391 296.076 148.519 296.356C148.647 296.634 148.711 296.986 148.711 297.412V300.592H148.015V297.464C148.015 297.071 147.923 296.765 147.738 296.545C147.553 296.323 147.299 296.212 146.977 296.212C146.754 296.212 146.555 296.266 146.38 296.373C146.207 296.479 146.07 296.634 145.97 296.838C145.869 297.043 145.819 297.29 145.819 297.582ZM151.864 295.587V296.239H149.515V295.587H151.864ZM150.2 294.389H150.896V299.159C150.896 299.376 150.925 299.538 150.981 299.647C151.04 299.754 151.115 299.825 151.206 299.862C151.298 299.897 151.396 299.915 151.499 299.915C151.575 299.915 151.638 299.91 151.687 299.901C151.736 299.891 151.776 299.881 151.805 299.876L151.946 300.566C151.9 300.586 151.834 300.605 151.749 300.625C151.665 300.646 151.557 300.657 151.427 300.657C151.231 300.657 151.037 300.611 150.849 300.517C150.662 300.424 150.507 300.282 150.383 300.09C150.26 299.9 150.2 299.658 150.2 299.366V294.389ZM155.95 296.708L155.325 296.904C155.285 296.788 155.227 296.677 155.15 296.568C155.075 296.458 154.973 296.366 154.844 296.295C154.714 296.223 154.548 296.187 154.345 296.187C154.068 296.187 153.836 296.257 153.651 296.398C153.468 296.538 153.377 296.715 153.377 296.929C153.377 297.121 153.44 297.272 153.566 297.382C153.692 297.493 153.888 297.585 154.156 297.66L154.829 297.842C155.234 297.951 155.537 298.117 155.735 298.341C155.933 298.562 156.033 298.848 156.033 299.198C156.033 299.485 155.958 299.74 155.809 299.966C155.661 300.192 155.454 300.37 155.189 300.501C154.924 300.631 154.614 300.697 154.262 300.697C153.8 300.697 153.417 300.586 153.114 300.364C152.811 300.143 152.619 299.818 152.538 299.393L153.199 299.21C153.263 299.48 153.382 299.682 153.557 299.817C153.734 299.951 153.965 300.019 154.25 300.019C154.575 300.019 154.832 299.942 155.023 299.791C155.217 299.636 155.313 299.451 155.313 299.237C155.313 299.062 155.258 298.917 155.147 298.8C155.037 298.68 154.869 298.591 154.64 298.533L153.885 298.338C153.469 298.229 153.164 298.06 152.97 297.832C152.776 297.602 152.68 297.314 152.68 296.969C152.68 296.686 152.752 296.437 152.896 296.219C153.041 296.002 153.239 295.831 153.489 295.708C153.74 295.584 154.026 295.522 154.345 295.522C154.794 295.522 155.146 295.631 155.401 295.847C155.659 296.065 155.842 296.352 155.95 296.708Z" fill="#0E121B"/>
</g>
<g filter="url(#filter2_d_1080_53567)">
<path opacity="0.5" d="M432.328 157.535H304.379C299.789 157.535 296.068 161.643 296.068 166.71V264.776C296.068 269.843 299.789 273.952 304.379 273.952H432.328C436.918 273.952 440.638 269.843 440.638 264.776V166.71C440.638 161.643 436.918 157.535 432.328 157.535Z" fill="white"/>
<mask id="mask3_1080_53567" style="mask-type:luminance" maskUnits="userSpaceOnUse" x="354" y="181" width="34" height="37">
<path d="M387.318 181.037H354.366V217.419H387.318V181.037Z" fill="white"/>
</mask>
<g mask="url(#mask3_1080_53567)">
<path d="M362.977 181.266H374.005L383.341 192.014V212.916C383.341 215.527 381.421 217.647 379.05 217.647H362.977C360.613 217.647 358.692 215.527 358.692 212.916V185.996C358.692 183.385 360.613 181.266 362.977 181.266Z" fill="#0E121B"/>
<path opacity="0.302" fill-rule="evenodd" clip-rule="evenodd" d="M373.818 181.037V191.703H383.167L373.818 181.037Z" fill="white"/>
<path d="M375.188 199.967H366.498C366.099 199.967 365.77 199.61 365.77 199.17C365.77 198.728 366.099 198.371 366.498 198.371H375.188C375.586 198.371 375.911 198.728 375.911 199.17C375.911 199.61 375.586 199.967 375.188 199.967ZM372.291 209.561H366.498C366.099 209.561 365.77 209.204 365.77 208.763C365.77 208.322 366.099 207.966 366.498 207.966H372.291C372.69 207.966 373.013 208.322 373.013 208.763C373.013 209.204 372.69 209.561 372.291 209.561ZM375.188 206.363H366.498C366.099 206.363 365.77 206.006 365.77 205.565C365.77 205.125 366.099 204.768 366.498 204.768H375.188C375.586 204.768 375.911 205.125 375.911 205.565C375.911 206.006 375.586 206.363 375.188 206.363ZM375.188 203.165H366.498C366.099 203.165 365.77 202.808 365.77 202.367C365.77 201.927 366.099 201.569 366.498 201.569H375.188C375.586 201.569 375.911 201.927 375.911 202.367C375.911 202.808 375.586 203.165 375.188 203.165Z" fill="white"/>
</g>
<path d="M330.371 237.092C330.336 236.761 330.192 236.506 329.941 236.323C329.689 236.14 329.38 236.049 329.014 236.049C328.746 236.049 328.513 236.097 328.311 236.193C328.113 236.288 327.957 236.42 327.846 236.587C327.735 236.755 327.68 236.944 327.68 237.157C327.68 237.335 327.718 237.489 327.795 237.616C327.874 237.742 327.975 237.848 328.096 237.932C328.218 238.015 328.346 238.084 328.479 238.138C328.613 238.189 328.736 238.232 328.848 238.265L329.462 238.447C329.62 238.493 329.795 238.556 329.988 238.637C330.183 238.717 330.369 238.826 330.546 238.966C330.724 239.102 330.872 239.278 330.988 239.494C331.105 239.708 331.163 239.972 331.163 240.285C331.163 240.646 331.077 240.972 330.906 241.262C330.737 241.553 330.489 241.785 330.162 241.957C329.837 242.128 329.442 242.214 328.978 242.214C328.546 242.214 328.171 242.137 327.854 241.982C327.539 241.829 327.291 241.613 327.11 241.338C326.932 241.061 326.83 240.741 326.807 240.377H327.562C327.582 240.628 327.659 240.837 327.792 241.002C327.928 241.165 328.099 241.286 328.306 241.367C328.514 241.445 328.738 241.485 328.978 241.485C329.257 241.485 329.509 241.434 329.731 241.334C329.954 241.232 330.129 241.091 330.259 240.911C330.389 240.728 330.454 240.515 330.454 240.272C330.454 240.051 330.398 239.87 330.286 239.731C330.174 239.592 330.026 239.479 329.843 239.393C329.661 239.305 329.462 239.23 329.25 239.164L328.506 238.929C328.034 238.78 327.661 238.566 327.384 238.288C327.109 238.009 326.972 237.646 326.972 237.196C326.972 236.822 327.063 236.496 327.246 236.219C327.431 235.938 327.678 235.721 327.99 235.566C328.303 235.41 328.652 235.332 329.037 235.332C329.427 235.332 329.774 235.409 330.076 235.564C330.379 235.715 330.619 235.924 330.796 236.189C330.976 236.454 331.07 236.755 331.08 237.092H330.371ZM334.151 237.092V237.743H331.803V237.092H334.151ZM332.487 235.893H333.183V240.663C333.183 240.88 333.212 241.043 333.268 241.152C333.328 241.259 333.402 241.33 333.493 241.367C333.585 241.402 333.683 241.419 333.786 241.419C333.863 241.419 333.925 241.415 333.974 241.406C334.024 241.395 334.063 241.386 334.092 241.38L334.234 242.071C334.187 242.09 334.121 242.11 334.036 242.129C333.952 242.151 333.844 242.161 333.714 242.161C333.518 242.161 333.325 242.115 333.137 242.021C332.95 241.929 332.794 241.786 332.67 241.595C332.548 241.404 332.487 241.162 332.487 240.871V235.893ZM336.442 242.214C336.154 242.214 335.894 242.154 335.66 242.035C335.425 241.914 335.239 241.738 335.102 241.51C334.964 241.28 334.895 241.002 334.895 240.676C334.895 240.389 334.946 240.156 335.049 239.979C335.151 239.799 335.288 239.658 335.459 239.555C335.63 239.453 335.819 239.377 336.026 239.327C336.234 239.274 336.443 239.233 336.654 239.203C336.929 239.164 337.153 239.135 337.324 239.115C337.498 239.093 337.623 239.058 337.702 239.007C337.782 238.958 337.823 238.871 337.823 238.747V238.72C337.823 238.399 337.743 238.149 337.584 237.971C337.426 237.794 337.187 237.704 336.867 237.704C336.535 237.704 336.274 237.785 336.085 237.945C335.896 238.107 335.763 238.278 335.686 238.46L335.025 238.2C335.144 237.896 335.3 237.658 335.497 237.49C335.696 237.318 335.912 237.198 336.146 237.131C336.383 237.062 336.615 237.026 336.843 237.026C336.989 237.026 337.156 237.046 337.345 237.085C337.536 237.123 337.72 237.2 337.896 237.317C338.075 237.434 338.224 237.611 338.342 237.848C338.461 238.085 338.52 238.402 338.52 238.8V242.097H337.823V241.419H337.787C337.741 241.527 337.662 241.644 337.552 241.768C337.441 241.892 337.295 241.997 337.111 242.083C336.928 242.171 336.705 242.214 336.442 242.214ZM336.548 241.524C336.823 241.524 337.055 241.464 337.244 241.344C337.435 241.224 337.579 241.071 337.675 240.881C337.774 240.692 337.823 240.494 337.823 240.285V239.581C337.794 239.621 337.728 239.656 337.628 239.689C337.53 239.719 337.415 239.746 337.286 239.77C337.158 239.792 337.033 239.811 336.911 239.828C336.791 239.844 336.693 239.857 336.619 239.867C336.438 239.894 336.269 239.936 336.111 239.995C335.956 240.052 335.83 240.137 335.734 240.253C335.639 240.365 335.591 240.52 335.591 240.715C335.591 240.982 335.682 241.184 335.86 241.322C336.041 241.456 336.271 241.524 336.548 241.524ZM339.699 242.097V237.092H340.372V237.848H340.419C340.502 237.6 340.651 237.399 340.868 237.245C341.085 237.091 341.328 237.014 341.6 237.014C341.651 237.014 341.715 237.015 341.791 237.017C341.868 237.02 341.926 237.022 341.966 237.026V237.809C341.942 237.802 341.888 237.793 341.804 237.779C341.72 237.764 341.633 237.757 341.541 237.757C341.32 237.757 341.123 237.807 340.951 237.91C340.779 238.009 340.643 238.148 340.543 238.327C340.445 238.503 340.396 238.703 340.396 238.929V242.097H339.699ZM344.955 237.092V237.743H342.607V237.092H344.955ZM343.291 235.893H343.987V240.663C343.987 240.88 344.016 241.043 344.073 241.152C344.132 241.259 344.206 241.33 344.297 241.367C344.389 241.402 344.487 241.419 344.59 241.419C344.667 241.419 344.729 241.415 344.779 241.406C344.828 241.395 344.867 241.386 344.896 241.38L345.038 242.071C344.991 242.09 344.925 242.11 344.84 242.129C344.756 242.151 344.649 242.161 344.519 242.161C344.322 242.161 344.129 242.115 343.94 242.021C343.753 241.929 343.598 241.786 343.474 241.595C343.351 241.404 343.291 241.162 343.291 240.871V235.893ZM349.184 242.097L347.804 237.092H348.535L349.515 240.924H349.563L350.531 237.092H351.275L352.23 240.911H352.277L353.258 237.092H353.989L352.608 242.097H351.924L350.932 238.251H350.861L349.869 242.097H349.184ZM354.819 242.097V237.092H355.515V242.097H354.819ZM355.172 236.258C355.037 236.258 354.92 236.206 354.821 236.104C354.726 236.002 354.677 235.879 354.677 235.736C354.677 235.593 354.726 235.47 354.821 235.368C354.92 235.266 355.037 235.215 355.172 235.215C355.308 235.215 355.425 235.266 355.521 235.368C355.619 235.47 355.669 235.593 355.669 235.736C355.669 235.879 355.619 236.002 355.521 236.104C355.425 236.206 355.308 236.258 355.172 236.258ZM358.671 237.092V237.743H356.321V237.092H358.671ZM357.006 235.893H357.703V240.663C357.703 240.88 357.731 241.043 357.788 241.152C357.847 241.259 357.922 241.33 358.012 241.367C358.105 241.402 358.203 241.419 358.304 241.419C358.381 241.419 358.445 241.415 358.493 241.406C358.543 241.395 358.582 241.386 358.612 241.38L358.753 242.071C358.706 242.09 358.64 242.11 358.556 242.129C358.471 242.151 358.364 242.161 358.234 242.161C358.037 242.161 357.844 242.115 357.655 242.021C357.468 241.929 357.313 241.786 357.19 241.595C357.067 241.404 357.006 241.162 357.006 240.871V235.893ZM360.42 239.086V242.097H359.724V235.423H360.42V237.874H360.48C360.586 237.615 360.746 237.411 360.958 237.258C361.173 237.103 361.458 237.026 361.814 237.026C362.123 237.026 362.393 237.095 362.626 237.232C362.858 237.367 363.037 237.574 363.165 237.855C363.295 238.132 363.36 238.486 363.36 238.917V242.097H362.663V238.968C362.663 238.571 362.571 238.264 362.384 238.046C362.199 237.827 361.941 237.717 361.613 237.717C361.385 237.717 361.18 237.771 360.999 237.877C360.82 237.984 360.679 238.139 360.574 238.343C360.472 238.547 360.42 238.795 360.42 239.086ZM368.123 242.214C367.836 242.214 367.575 242.154 367.341 242.035C367.106 241.914 366.92 241.738 366.783 241.51C366.645 241.28 366.577 241.002 366.577 240.676C366.577 240.389 366.628 240.156 366.73 239.979C366.832 239.799 366.969 239.658 367.141 239.555C367.311 239.453 367.5 239.377 367.707 239.327C367.916 239.274 368.124 239.233 368.335 239.203C368.611 239.164 368.834 239.135 369.005 239.115C369.179 239.093 369.305 239.058 369.384 239.007C369.464 238.958 369.504 238.871 369.504 238.747V238.72C369.504 238.399 369.424 238.149 369.265 237.971C369.108 237.794 368.868 237.704 368.548 237.704C368.216 237.704 367.955 237.785 367.766 237.945C367.577 238.107 367.444 238.278 367.367 238.46L366.706 238.2C366.825 237.896 366.982 237.658 367.179 237.49C367.378 237.318 367.594 237.198 367.828 237.131C368.064 237.062 368.296 237.026 368.524 237.026C368.67 237.026 368.837 237.046 369.026 237.085C369.217 237.123 369.401 237.2 369.578 237.317C369.758 237.434 369.906 237.611 370.023 237.848C370.142 238.085 370.201 238.402 370.201 238.8V242.097H369.504V241.419H369.469C369.422 241.527 369.343 241.644 369.233 241.768C369.123 241.892 368.976 241.997 368.792 242.083C368.61 242.171 368.386 242.214 368.123 242.214ZM368.229 241.524C368.505 241.524 368.737 241.464 368.925 241.344C369.117 241.224 369.26 241.071 369.357 240.881C369.455 240.692 369.504 240.494 369.504 240.285V239.581C369.475 239.621 369.41 239.656 369.31 239.689C369.211 239.719 369.097 239.746 368.967 239.77C368.839 239.792 368.715 239.811 368.592 239.828C368.472 239.844 368.375 239.857 368.3 239.867C368.119 239.894 367.95 239.936 367.792 239.995C367.637 240.052 367.512 240.137 367.415 240.253C367.32 240.365 367.273 240.52 367.273 240.715C367.273 240.982 367.363 241.184 367.542 241.322C367.722 241.456 367.952 241.524 368.229 241.524ZM373.721 242.097V235.423H374.418V237.887H374.476C374.528 237.799 374.599 237.689 374.689 237.554C374.781 237.418 374.913 237.296 375.085 237.189C375.257 237.081 375.492 237.026 375.787 237.026C376.168 237.026 376.505 237.132 376.796 237.343C377.088 237.554 377.315 237.852 377.478 238.239C377.641 238.625 377.722 239.082 377.722 239.607C377.722 240.137 377.641 240.597 377.478 240.986C377.315 241.372 377.089 241.672 376.799 241.885C376.51 242.096 376.176 242.202 375.798 242.202C375.507 242.202 375.274 242.148 375.099 242.041C374.924 241.933 374.79 241.81 374.695 241.673C374.601 241.534 374.528 241.419 374.476 241.328H374.394V242.097H373.721ZM374.405 239.594C374.405 239.972 374.456 240.306 374.556 240.595C374.657 240.881 374.803 241.106 374.995 241.269C375.189 241.43 375.424 241.51 375.704 241.51C375.996 241.51 376.239 241.425 376.433 241.256C376.629 241.084 376.777 240.854 376.876 240.565C376.976 240.275 377.026 239.95 377.026 239.594C377.026 239.242 376.977 238.926 376.879 238.642C376.782 238.358 376.636 238.133 376.439 237.968C376.244 237.801 375.999 237.717 375.704 237.717C375.421 237.717 375.182 237.797 374.99 237.955C374.797 238.111 374.651 238.332 374.553 238.614C374.455 238.894 374.405 239.221 374.405 239.594ZM379.394 235.423V242.097H378.697V235.423H379.394ZM381.912 242.214C381.624 242.214 381.363 242.154 381.13 242.035C380.895 241.914 380.709 241.738 380.572 241.51C380.434 241.28 380.365 241.002 380.365 240.676C380.365 240.389 380.416 240.156 380.519 239.979C380.621 239.799 380.758 239.658 380.929 239.555C381.1 239.453 381.289 239.377 381.495 239.327C381.704 239.274 381.913 239.233 382.124 239.203C382.399 239.164 382.622 239.135 382.794 239.115C382.967 239.093 383.093 239.058 383.172 239.007C383.252 238.958 383.292 238.871 383.292 238.747V238.72C383.292 238.399 383.213 238.149 383.054 237.971C382.897 237.794 382.657 237.704 382.337 237.704C382.004 237.704 381.744 237.785 381.555 237.945C381.365 238.107 381.233 238.278 381.156 238.46L380.495 238.2C380.613 237.896 380.77 237.658 380.967 237.49C381.166 237.318 381.382 237.198 381.616 237.131C381.853 237.062 382.084 237.026 382.313 237.026C382.458 237.026 382.626 237.046 382.815 237.085C383.006 237.123 383.19 237.2 383.366 237.317C383.546 237.434 383.693 237.611 383.812 237.848C383.93 238.085 383.99 238.402 383.99 238.8V242.097H383.292V241.419H383.257C383.21 241.527 383.131 241.644 383.021 241.768C382.911 241.892 382.765 241.997 382.581 242.083C382.398 242.171 382.175 242.214 381.912 242.214ZM382.018 241.524C382.293 241.524 382.525 241.464 382.714 241.344C382.905 241.224 383.048 241.071 383.145 240.881C383.244 240.692 383.292 240.494 383.292 240.285V239.581C383.263 239.621 383.198 239.656 383.098 239.689C383 239.719 382.885 239.746 382.755 239.77C382.628 239.792 382.503 239.811 382.38 239.828C382.261 239.844 382.163 239.857 382.088 239.867C381.908 239.894 381.738 239.936 381.581 239.995C381.426 240.052 381.3 240.137 381.203 240.253C381.109 240.365 381.061 240.52 381.061 240.715C381.061 240.982 381.151 241.184 381.33 241.322C381.511 241.456 381.74 241.524 382.018 241.524ZM385.866 239.086V242.097H385.169V237.092H385.842V237.874H385.901C386.007 237.619 386.168 237.415 386.385 237.262C386.601 237.104 386.881 237.026 387.223 237.026C387.53 237.026 387.799 237.096 388.029 237.235C388.259 237.372 388.438 237.58 388.566 237.86C388.693 238.139 388.758 238.491 388.758 238.917V242.097H388.061V238.968C388.061 238.576 387.968 238.27 387.783 238.049C387.598 237.828 387.345 237.717 387.022 237.717C386.8 237.717 386.601 237.771 386.427 237.877C386.253 237.984 386.116 238.139 386.016 238.343C385.916 238.547 385.866 238.795 385.866 239.086ZM390.588 240.272L390.577 239.32H390.718L392.701 237.092H393.563L391.45 239.451H391.391L390.588 240.272ZM389.939 242.097V235.423H390.635V242.097H389.939ZM392.82 242.097L391.048 239.621L391.544 239.086L393.705 242.097H392.82ZM396.615 243.974V237.092H397.287V237.887H397.37C397.421 237.799 397.491 237.689 397.582 237.554C397.674 237.418 397.806 237.296 397.977 237.189C398.151 237.081 398.385 237.026 398.68 237.026C399.062 237.026 399.398 237.132 399.689 237.343C399.98 237.554 400.208 237.852 400.371 238.239C400.534 238.625 400.616 239.082 400.616 239.607C400.616 240.137 400.534 240.597 400.371 240.986C400.208 241.372 399.981 241.672 399.693 241.885C399.403 242.096 399.069 242.202 398.692 242.202C398.4 242.202 398.168 242.148 397.992 242.041C397.818 241.933 397.682 241.81 397.588 241.673C397.493 241.534 397.421 241.419 397.37 241.328H397.311V243.974H396.615ZM397.299 239.594C397.299 239.972 397.349 240.306 397.45 240.595C397.549 240.881 397.696 241.106 397.889 241.269C398.081 241.43 398.318 241.51 398.598 241.51C398.889 241.51 399.132 241.425 399.326 241.256C399.523 241.084 399.671 240.854 399.769 240.565C399.869 240.275 399.919 239.95 399.919 239.594C399.919 239.242 399.87 238.926 399.772 238.642C399.676 238.358 399.528 238.133 399.332 237.968C399.138 237.801 398.893 237.717 398.598 237.717C398.314 237.717 398.076 237.797 397.883 237.955C397.691 238.111 397.544 238.332 397.447 238.614C397.348 238.894 397.299 239.221 397.299 239.594ZM402.921 242.214C402.634 242.214 402.373 242.154 402.139 242.035C401.904 241.914 401.718 241.738 401.581 241.51C401.443 241.28 401.374 241.002 401.374 240.676C401.374 240.389 401.425 240.156 401.528 239.979C401.63 239.799 401.767 239.658 401.939 239.555C402.109 239.453 402.298 239.377 402.505 239.327C402.714 239.274 402.923 239.233 403.133 239.203C403.409 239.164 403.632 239.135 403.803 239.115C403.977 239.093 404.102 239.058 404.181 239.007C404.261 238.958 404.302 238.871 404.302 238.747V238.72C404.302 238.399 404.222 238.149 404.063 237.971C403.906 237.794 403.666 237.704 403.346 237.704C403.014 237.704 402.753 237.785 402.564 237.945C402.375 238.107 402.242 238.278 402.165 238.46L401.504 238.2C401.623 237.896 401.78 237.658 401.977 237.49C402.175 237.318 402.392 237.198 402.626 237.131C402.862 237.062 403.094 237.026 403.322 237.026C403.468 237.026 403.635 237.046 403.824 237.085C404.015 237.123 404.199 237.2 404.376 237.317C404.555 237.434 404.704 237.611 404.821 237.848C404.94 238.085 404.999 238.402 404.999 238.8V242.097H404.302V241.419H404.267C404.22 241.527 404.141 241.644 404.031 241.768C403.921 241.892 403.774 241.997 403.591 242.083C403.407 242.171 403.184 242.214 402.921 242.214ZM403.027 241.524C403.303 241.524 403.535 241.464 403.723 241.344C403.914 241.224 404.058 241.071 404.154 240.881C404.253 240.692 404.302 240.494 404.302 240.285V239.581C404.273 239.621 404.207 239.656 404.108 239.689C404.009 239.719 403.895 239.746 403.765 239.77C403.637 239.792 403.512 239.811 403.39 239.828C403.27 239.844 403.173 239.857 403.098 239.867C402.917 239.894 402.748 239.936 402.59 239.995C402.435 240.052 402.309 240.137 402.213 240.253C402.118 240.365 402.071 240.52 402.071 240.715C402.071 240.982 402.161 241.184 402.34 241.322C402.52 241.456 402.75 241.524 403.027 241.524ZM408.008 244.078C407.672 244.078 407.382 244.03 407.141 243.935C406.899 243.842 406.696 243.718 406.535 243.563C406.376 243.412 406.25 243.248 406.155 243.074L406.71 242.644C406.772 242.735 406.852 242.839 406.949 242.957C407.045 243.077 407.177 243.18 407.345 243.267C407.513 243.355 407.734 243.4 408.008 243.4C408.374 243.4 408.676 243.303 408.914 243.106C409.152 242.911 409.272 242.605 409.272 242.188V241.172H409.212C409.162 241.262 409.089 241.376 408.994 241.51C408.902 241.643 408.768 241.761 408.592 241.865C408.42 241.968 408.185 242.018 407.89 242.018C407.524 242.018 407.196 241.923 406.904 241.731C406.615 241.541 406.386 241.262 406.216 240.897C406.049 240.533 405.966 240.09 405.966 239.568C405.966 239.055 406.047 238.609 406.211 238.23C406.374 237.846 406.602 237.552 406.893 237.343C407.184 237.132 407.52 237.026 407.901 237.026C408.198 237.026 408.431 237.081 408.605 237.189C408.779 237.296 408.913 237.418 409.006 237.554C409.1 237.689 409.173 237.799 409.224 237.887H409.295V237.092H409.968V242.24C409.968 242.671 409.879 243.02 409.702 243.289C409.527 243.561 409.291 243.759 408.994 243.885C408.699 244.014 408.37 244.078 408.008 244.078ZM407.985 241.328C408.264 241.328 408.5 241.258 408.693 241.116C408.885 240.974 409.033 240.771 409.133 240.506C409.233 240.241 409.283 239.925 409.283 239.555C409.283 239.194 409.234 238.876 409.136 238.6C409.037 238.325 408.891 238.108 408.699 237.952C408.506 237.796 408.268 237.717 407.985 237.717C407.69 237.717 407.443 237.799 407.247 237.965C407.052 238.13 406.905 238.352 406.807 238.63C406.711 238.907 406.662 239.216 406.662 239.555C406.662 239.903 406.712 240.21 406.81 240.478C406.91 240.743 407.058 240.951 407.252 241.103C407.45 241.253 407.694 241.328 407.985 241.328ZM413.052 242.202C412.615 242.202 412.239 242.095 411.922 241.881C411.607 241.667 411.364 241.367 411.193 240.982C411.023 240.596 410.939 240.146 410.939 239.633C410.939 239.121 411.023 238.669 411.193 238.278C411.364 237.884 411.602 237.578 411.907 237.359C412.214 237.138 412.572 237.026 412.981 237.026C413.217 237.026 413.45 237.07 413.681 237.157C413.911 237.244 414.12 237.385 414.309 237.58C414.498 237.774 414.649 238.03 414.761 238.35C414.873 238.669 414.929 239.062 414.929 239.529V239.855H411.435V239.191H414.221C414.221 238.907 414.17 238.656 414.067 238.434C413.967 238.212 413.823 238.038 413.636 237.91C413.451 237.781 413.233 237.717 412.981 237.717C412.704 237.717 412.464 237.794 412.261 237.945C412.06 238.095 411.906 238.29 411.798 238.532C411.689 238.773 411.635 239.031 411.635 239.308V239.75C411.635 240.129 411.694 240.449 411.813 240.712C411.932 240.973 412.098 241.172 412.311 241.308C412.523 241.443 412.77 241.51 413.052 241.51C413.235 241.51 413.4 241.482 413.548 241.425C413.697 241.367 413.826 241.28 413.934 241.165C414.043 241.048 414.126 240.902 414.185 240.728L414.859 240.936C414.787 241.189 414.668 241.41 414.501 241.602C414.334 241.791 414.127 241.938 413.881 242.044C413.635 242.149 413.358 242.202 413.052 242.202Z" fill="#0E121B"/>
</g>
<path d="M280.681 121.244H150.631C146.041 121.244 142.32 125.352 142.32 130.42V185.474C142.32 190.542 146.041 194.65 150.631 194.65H280.681C285.27 194.65 288.991 190.542 288.991 185.474V130.42C288.991 125.352 285.27 121.244 280.681 121.244Z" fill="white"/>
<g filter="url(#filter3_d_1080_53567)">
<path d="M154.786 150.384C154.786 145.316 158.507 141.208 163.097 141.208H176.796C181.387 141.208 185.107 145.316 185.107 150.384V165.51C185.107 170.577 181.387 174.686 176.796 174.686H163.097C158.507 174.686 154.786 170.577 154.786 165.51V150.384Z" fill="white"/>
<path d="M163.097 141.781H176.797C181.1 141.781 184.588 145.633 184.589 150.384V165.51C184.588 170.261 181.1 174.112 176.797 174.112H163.097C158.794 174.112 155.306 170.261 155.306 165.51V150.384L155.316 149.942C155.518 145.542 158.712 142.015 162.696 141.793L163.097 141.781Z" stroke="#E1E4EA"/>
<path d="M175.627 155.258L174.613 152.795L172.381 151.674L174.613 150.555L175.627 148.09L176.642 150.555L178.874 151.674L176.642 152.795L175.627 155.258ZM175.627 167.804L174.613 165.339L172.381 164.22L174.613 163.099L175.627 160.635L176.642 163.099L178.874 164.22L176.642 165.339L175.627 167.804ZM167.512 165.115L165.483 160.187L161.019 157.947L165.483 155.707L167.512 150.778L169.541 155.707L174.005 157.947L169.541 160.187L167.512 165.115ZM167.512 160.77L168.323 158.843L170.069 157.947L168.323 157.051L167.512 155.124L166.701 157.051L164.955 157.947L166.701 158.843L167.512 160.77Z" fill="url(#paint0_linear_1080_53567)"/>
</g>
<g filter="url(#filter4_d_1080_53567)">
<path d="M197.574 148.771C197.574 143.704 201.294 139.595 205.885 139.595H222.506C227.096 139.595 230.817 143.704 230.817 148.771V167.122C230.817 172.19 227.096 176.298 222.506 176.298H205.885C201.294 176.298 197.574 172.19 197.574 167.122V148.771Z" fill="white"/>
<path d="M205.885 140.169H222.506C226.809 140.169 230.297 144.02 230.297 148.771V167.122C230.297 171.873 226.809 175.725 222.506 175.725H205.885C201.581 175.725 198.094 171.873 198.094 167.122V148.771C198.094 144.02 201.581 140.169 205.885 140.169Z" stroke="#E1E4EA"/>
<path d="M214.194 150.205C218.395 150.205 221.891 153.542 222.624 157.947C221.892 162.351 218.395 165.689 214.194 165.689C209.993 165.689 206.499 162.351 205.765 157.947C206.498 153.542 209.993 150.205 214.194 150.205ZM214.194 163.968C215.784 163.968 217.325 163.372 218.568 162.278C219.81 161.184 220.68 159.657 221.033 157.947C220.678 156.238 219.808 154.712 218.566 153.62C217.324 152.527 215.783 151.932 214.194 151.932C212.607 151.932 211.065 152.527 209.824 153.62C208.581 154.712 207.712 156.238 207.357 157.947C207.71 159.657 208.579 161.184 209.822 162.278C211.064 163.372 212.606 163.968 214.194 163.968ZM214.194 161.818C213.264 161.818 212.373 161.409 211.716 160.683C211.058 159.958 210.688 158.973 210.688 157.947C210.688 156.92 211.058 155.935 211.716 155.21C212.373 154.484 213.264 154.076 214.194 154.076C215.125 154.076 216.016 154.484 216.674 155.21C217.332 155.935 217.7 156.92 217.7 157.947C217.7 158.973 217.332 159.958 216.674 160.683C216.016 161.409 215.125 161.818 214.194 161.818ZM214.194 160.097C214.712 160.097 215.207 159.87 215.572 159.467C215.937 159.064 216.142 158.517 216.142 157.947C216.142 157.377 215.937 156.829 215.572 156.426C215.207 156.023 214.712 155.796 214.194 155.796C213.678 155.796 213.182 156.023 212.818 156.426C212.452 156.829 212.246 157.377 212.246 157.947C212.246 158.517 212.452 159.064 212.818 159.467C213.182 159.87 213.678 160.097 214.194 160.097Z" fill="#525866"/>
</g>
<g filter="url(#filter5_d_1080_53567)">
<path d="M243.283 148.771C243.283 143.704 247.003 139.595 251.593 139.595H268.215C272.804 139.595 276.525 143.704 276.525 148.771V167.122C276.525 172.19 272.804 176.298 268.215 176.298H251.593C247.003 176.298 243.283 172.19 243.283 167.122V148.771Z" fill="white"/>
<path d="M251.594 140.169H268.215C272.518 140.169 276.006 144.02 276.006 148.771V167.122C276.006 171.873 272.518 175.725 268.215 175.725H251.594C247.29 175.725 243.802 171.873 243.802 167.122V148.771C243.802 144.02 247.29 140.169 251.594 140.169Z" stroke="#E1E4EA"/>
<path d="M259.904 150.205C259.046 150.205 258.346 150.979 258.346 151.925C258.346 152.871 259.046 153.645 259.904 153.645C260.761 153.645 261.462 152.871 261.462 151.925C261.462 150.979 260.761 150.205 259.904 150.205ZM259.904 162.248C259.046 162.248 258.346 163.022 258.346 163.968C258.346 164.914 259.046 165.689 259.904 165.689C260.761 165.689 261.462 164.914 261.462 163.968C261.462 163.022 260.761 162.248 259.904 162.248ZM259.904 156.226C259.046 156.226 258.346 157 258.346 157.947C258.346 158.893 259.046 159.667 259.904 159.667C260.761 159.667 261.462 158.893 261.462 157.947C261.462 157 260.761 156.226 259.904 156.226Z" fill="#525866"/>
</g>
<path opacity="0.5" d="M549.544 27.1926H241.01C236.42 27.1926 232.699 31.3007 232.699 36.3683V91.4227C232.699 96.4903 236.42 100.598 241.01 100.598H549.544C554.133 100.598 557.854 96.4903 557.854 91.4227V36.3683C557.854 31.3007 554.133 27.1926 549.544 27.1926Z" fill="white"/>
<path d="M273.006 58.3902V76.2732C273.007 76.454 272.976 76.6333 272.914 76.8007C272.853 76.9682 272.762 77.1206 272.647 77.2493C272.532 77.378 272.395 77.4804 272.244 77.5507C272.094 77.6212 271.932 77.658 271.768 77.6592H251.805C251.477 77.6592 251.162 77.5154 250.93 77.2594C250.698 77.0034 250.568 76.6561 250.567 76.2939V51.4974C250.567 50.7583 251.127 50.1321 251.817 50.1321H265.523L273.006 58.3902ZM270.513 59.7666H264.28V52.8848H253.06V74.9065H270.513V59.7666ZM256.8 57.0139H260.54V59.7666H256.8V57.0139ZM256.8 62.5193H266.773V65.272H256.8V62.5193ZM256.8 68.0247H266.773V70.7774H256.8V68.0247Z" fill="#0E121B"/>
<path d="M316.195 69.6304H312.931V57.9522H316.34C317.366 57.9522 318.244 58.186 318.974 58.6536C319.704 59.1173 320.263 59.7845 320.652 60.6551C321.042 61.5218 321.236 62.5596 321.236 63.7685C321.236 64.985 321.04 66.0323 320.648 66.9105C320.255 67.7848 319.683 68.4576 318.933 68.929C318.182 69.3966 317.27 69.6304 316.195 69.6304ZM314.212 68.3758H316.112C316.987 68.3758 317.712 68.1896 318.287 67.817C318.862 67.4445 319.291 66.9143 319.573 66.2262C319.855 65.5381 319.997 64.7189 319.997 63.7685C319.997 62.8257 319.857 62.0141 319.578 61.3336C319.299 60.6493 318.883 60.1248 318.328 59.7598C317.774 59.3911 317.084 59.2067 316.258 59.2067H314.212V68.3758ZM326.458 69.8129C325.693 69.8129 325.035 69.6266 324.48 69.2541C323.93 68.8778 323.504 68.3531 323.204 67.6802C322.908 67.0036 322.76 66.2167 322.76 65.3195C322.76 64.4224 322.908 63.6317 323.204 62.9474C323.504 62.2593 323.92 61.7233 324.454 61.3393C324.991 60.9515 325.618 60.7577 326.334 60.7577C326.747 60.7577 327.155 60.8338 327.558 60.9858C327.961 61.1378 328.328 61.385 328.658 61.7271C328.989 62.0655 329.253 62.5141 329.449 63.0729C329.645 63.6317 329.743 64.3197 329.743 65.137V65.7072H323.628V64.544H328.504C328.504 64.0498 328.414 63.6088 328.234 63.221C328.059 62.8334 327.808 62.5274 327.48 62.303C327.157 62.0788 326.775 61.9666 326.334 61.9666C325.848 61.9666 325.429 62.0997 325.074 62.3657C324.723 62.6281 324.452 62.9702 324.263 63.3922C324.074 63.8141 323.979 64.2665 323.979 64.7493V65.5248C323.979 66.1863 324.082 66.7469 324.289 67.207C324.499 67.6631 324.79 68.011 325.162 68.2505C325.534 68.4862 325.966 68.604 326.458 68.604C326.778 68.604 327.068 68.5545 327.325 68.4558C327.587 68.3531 327.813 68.201 328.003 67.9995C328.192 67.7942 328.338 67.5396 328.441 67.2354L329.619 67.6004C329.495 68.0414 329.287 68.4292 328.994 68.7636C328.701 69.0944 328.339 69.3528 327.909 69.5392C327.479 69.7216 326.995 69.8129 326.458 69.8129ZM335.042 60.8717V62.0123H330.766V60.8717H335.042ZM332.047 69.6304V59.6629C332.047 59.1611 332.154 58.7429 332.367 58.4084C332.581 58.0738 332.857 57.823 333.199 57.6557C333.54 57.4884 333.899 57.4048 334.278 57.4048C334.578 57.4048 334.822 57.4314 335.012 57.4846C335.201 57.5378 335.342 57.5873 335.435 57.6329L335.084 58.7962C335.021 58.7733 334.936 58.7448 334.826 58.7106C334.719 58.6764 334.578 58.6593 334.402 58.6593C333.999 58.6593 333.708 58.7714 333.529 58.9957C333.354 59.22 333.266 59.5488 333.266 59.9822V69.6304H332.047ZM339.663 69.8129C338.898 69.8129 338.238 69.6266 337.685 69.2541C337.134 68.8778 336.708 68.3531 336.409 67.6802C336.113 67.0036 335.964 66.2167 335.964 65.3195C335.964 64.4224 336.113 63.6317 336.409 62.9474C336.708 62.2593 337.125 61.7233 337.659 61.3393C338.196 60.9515 338.822 60.7577 339.539 60.7577C339.951 60.7577 340.36 60.8338 340.763 60.9858C341.166 61.1378 341.533 61.385 341.863 61.7271C342.193 62.0655 342.457 62.5141 342.653 63.0729C342.849 63.6317 342.948 64.3197 342.948 65.137V65.7072H336.833V64.544H341.708C341.708 64.0498 341.619 63.6088 341.439 63.221C341.264 62.8334 341.012 62.5274 340.685 62.303C340.362 62.0788 339.98 61.9666 339.539 61.9666C339.053 61.9666 338.633 62.0997 338.279 62.3657C337.928 62.6281 337.657 62.9702 337.468 63.3922C337.279 63.8141 337.184 64.2665 337.184 64.7493V65.5248C337.184 66.1863 337.287 66.7469 337.494 67.207C337.703 67.6631 337.994 68.011 338.366 68.2505C338.738 68.4862 339.17 68.604 339.663 68.604C339.983 68.604 340.272 68.5545 340.53 68.4558C340.792 68.3531 341.017 68.201 341.206 67.9995C341.396 67.7942 341.543 67.5396 341.646 67.2354L342.824 67.6004C342.699 68.0414 342.491 68.4292 342.198 68.7636C341.906 69.0944 341.544 69.3528 341.114 69.5392C340.684 69.7216 340.2 69.8129 339.663 69.8129ZM345.933 64.3615V69.6304H344.715V60.8717H345.892V62.2403H345.995C346.181 61.7955 346.463 61.4382 346.842 61.1683C347.221 60.8945 347.709 60.7577 348.309 60.7577C348.846 60.7577 349.316 60.8794 349.719 61.1227C350.122 61.3622 350.435 61.7271 350.659 62.2174C350.882 62.7041 350.994 63.3199 350.994 64.065V69.6304H349.776V64.1563C349.776 63.4682 349.614 62.9321 349.291 62.5482C348.966 62.1604 348.522 61.9666 347.958 61.9666C347.568 61.9666 347.221 62.0597 346.915 62.246C346.611 62.4323 346.373 62.7041 346.197 63.0614C346.021 63.4188 345.933 63.8521 345.933 64.3615ZM356.13 69.8129C355.469 69.8129 354.886 69.6284 354.379 69.2597C353.873 68.8872 353.477 68.3625 353.191 67.6859C352.906 67.0055 352.762 66.2014 352.762 65.2739C352.762 64.3539 352.906 63.5556 353.191 62.8789C353.477 62.2023 353.875 61.6795 354.384 61.3108C354.894 60.9421 355.483 60.7577 356.151 60.7577C356.667 60.7577 357.075 60.8528 357.375 61.0428C357.678 61.2291 357.909 61.442 358.067 61.6815C358.229 61.9172 358.354 62.111 358.444 62.2631H358.547V57.9522H359.766V69.6304H358.588V68.2847H358.444C358.354 68.4443 358.227 68.6458 358.061 68.8891C357.896 69.1286 357.66 69.3434 357.354 69.5335C357.048 69.7197 356.639 69.8129 356.13 69.8129ZM356.295 68.604C356.784 68.604 357.197 68.4634 357.535 68.182C357.872 67.8969 358.129 67.5035 358.305 67.0017C358.48 66.4961 358.567 65.9125 358.567 65.2511C358.567 64.5972 358.481 64.0251 358.31 63.5347C358.137 63.0405 357.883 62.6565 357.545 62.3828C357.208 62.1054 356.791 61.9666 356.295 61.9666C355.779 61.9666 355.348 62.113 355.004 62.4057C354.663 62.6946 354.407 63.088 354.234 63.586C354.066 64.0802 353.982 64.6353 353.982 65.2511C353.982 65.8745 354.067 66.4409 354.24 66.9504C354.415 67.456 354.674 67.8589 355.015 68.1592C355.358 68.4558 355.785 68.604 356.295 68.604ZM364.415 69.8357C363.912 69.8357 363.456 69.7311 363.046 69.522C362.637 69.3091 362.311 69.0031 362.07 68.604C361.829 68.201 361.709 67.7144 361.709 67.1442C361.709 66.6424 361.798 66.2356 361.977 65.924C362.156 65.6084 362.396 65.3613 362.695 65.1827C362.994 65.004 363.325 64.871 363.687 64.7834C364.051 64.6923 364.418 64.62 364.787 64.5668C365.269 64.4984 365.66 64.447 365.959 64.4129C366.262 64.3749 366.482 64.3121 366.619 64.2246C366.761 64.1372 366.831 63.9851 366.831 63.7685V63.7228C366.831 63.1603 366.692 62.723 366.414 62.4114C366.137 62.0997 365.72 61.9438 365.159 61.9438C364.576 61.9438 364.12 62.0844 363.79 62.3657C363.459 62.6471 363.227 62.9474 363.093 63.2667L361.935 62.8105C362.142 62.2784 362.417 61.864 362.762 61.5675C363.109 61.2671 363.488 61.058 363.898 60.9402C364.311 60.8185 364.717 60.7577 365.117 60.7577C365.372 60.7577 365.665 60.7919 365.995 60.8604C366.329 60.9249 366.651 61.0599 366.961 61.2652C367.274 61.4705 367.534 61.7803 367.74 62.1946C367.947 62.609 368.051 63.164 368.051 63.8598V69.6304H366.831V68.4443H366.77C366.687 68.6344 366.55 68.8377 366.357 69.0545C366.163 69.2712 365.907 69.4555 365.587 69.6076C365.267 69.7597 364.876 69.8357 364.415 69.8357ZM364.601 68.6268C365.083 68.6268 365.489 68.5223 365.82 68.3132C366.153 68.1041 366.404 67.8341 366.574 67.5035C366.745 67.1727 366.831 66.8249 366.831 66.46V65.2282C366.78 65.2967 366.666 65.3594 366.491 65.4164C366.318 65.4697 366.119 65.5171 365.892 65.559C365.668 65.597 365.45 65.6313 365.236 65.6617C365.026 65.6883 364.855 65.7111 364.725 65.73C364.408 65.7757 364.112 65.8498 363.836 65.9524C363.564 66.0513 363.344 66.2014 363.175 66.403C363.009 66.6006 362.927 66.8705 362.927 67.2126C362.927 67.6802 363.084 68.0338 363.397 68.2733C363.714 68.509 364.115 68.6268 364.601 68.6268ZM371.406 64.3615V69.6304H370.188V60.8717H371.366V62.2403H371.469C371.655 61.7955 371.937 61.4382 372.315 61.1683C372.695 60.8945 373.184 60.7577 373.782 60.7577C374.319 60.7577 374.79 60.8794 375.193 61.1227C375.595 61.3622 375.909 61.7271 376.132 62.2174C376.356 62.7041 376.469 63.3199 376.469 64.065V69.6304H375.249V64.1563C375.249 63.4682 375.088 62.9321 374.764 62.5482C374.44 62.1604 373.996 61.9666 373.431 61.9666C373.043 61.9666 372.695 62.0597 372.388 62.246C372.085 62.4323 371.846 62.7041 371.67 63.0614C371.495 63.4188 371.406 63.8521 371.406 64.3615ZM382.059 60.8717V62.0123H377.947V60.8717H382.059ZM379.146 58.7733H380.364V67.1214C380.364 67.5015 380.414 67.7866 380.514 67.9767C380.618 68.163 380.748 68.2884 380.907 68.3531C381.069 68.4139 381.239 68.4443 381.418 68.4443C381.552 68.4443 381.662 68.4367 381.748 68.4215C381.834 68.4026 381.903 68.3873 381.955 68.3758L382.203 69.5847C382.12 69.619 382.005 69.6532 381.857 69.6874C381.708 69.7255 381.522 69.7444 381.294 69.7444C380.949 69.7444 380.613 69.6627 380.281 69.4993C379.955 69.3357 379.683 69.0867 379.466 68.7523C379.252 68.4177 379.146 67.9957 379.146 67.4864V58.7733ZM385.29 57.9522V58.9786C385.29 59.2903 385.238 59.623 385.136 59.9765C385.036 60.3262 384.887 60.6665 384.691 60.9972C384.499 61.3241 384.264 61.6092 383.989 61.8526L383.328 61.2595C383.545 60.9174 383.732 60.5619 383.891 60.1932C384.053 59.8206 384.133 59.4234 384.133 59.0015V57.9522H385.29ZM391.31 62.8334L390.215 63.1755C390.147 62.974 390.045 62.7782 389.911 62.5881C389.78 62.3943 389.601 62.2345 389.374 62.1092C389.147 61.9837 388.856 61.921 388.5 61.921C388.015 61.921 387.611 62.0445 387.287 62.2917C386.967 62.5349 386.807 62.8447 386.807 63.221C386.807 63.5556 386.917 63.8198 387.137 64.0137C387.358 64.2075 387.703 64.3692 388.17 64.4984L389.348 64.8177C390.058 65.0078 390.585 65.2985 390.933 65.6901C391.281 66.0779 391.455 66.5777 391.455 67.1899C391.455 67.6917 391.324 68.1403 391.062 68.5356C390.805 68.931 390.443 69.2426 389.978 69.4707C389.513 69.6989 388.973 69.8129 388.356 69.8129C387.547 69.8129 386.878 69.619 386.347 69.2313C385.817 68.8435 385.482 68.2771 385.34 67.532L386.496 67.2126C386.608 67.684 386.815 68.0376 387.122 68.2733C387.431 68.509 387.837 68.6268 388.335 68.6268C388.903 68.6268 389.354 68.4938 389.689 68.2277C390.026 67.9578 390.195 67.6346 390.195 67.2582C390.195 66.9542 390.098 66.6994 389.906 66.4941C389.713 66.285 389.417 66.1292 389.018 66.0266L387.695 65.6845C386.969 65.4943 386.435 65.1998 386.094 64.8006C385.757 64.3976 385.588 63.894 385.588 63.2895C385.588 62.7953 385.713 62.3582 385.965 61.978C386.22 61.5979 386.566 61.2994 387.003 61.0828C387.444 60.8661 387.944 60.7577 388.5 60.7577C389.286 60.7577 389.902 60.9478 390.35 61.328C390.8 61.7081 391.121 62.2099 391.31 62.8334ZM397.371 69.6304V57.9522H400.945C401.771 57.9522 402.45 58.1081 402.98 58.4198C403.511 58.7277 403.902 59.1516 404.158 59.6914C404.412 60.2312 404.54 60.8451 404.54 61.5332C404.54 62.2212 404.412 62.8314 404.158 63.3636C403.902 63.8958 403.512 64.314 402.985 64.6182C402.458 64.9184 401.785 65.0686 400.965 65.0686H398.073V63.7913H400.924C401.489 63.7913 401.943 63.7 402.288 63.5176C402.636 63.3352 402.887 63.0766 403.042 62.7421C403.2 62.4037 403.279 62.0008 403.279 61.5332C403.279 61.0657 403.2 60.657 403.042 60.3072C402.883 59.9575 402.631 59.6876 402.283 59.4975C401.935 59.3036 401.475 59.2067 400.904 59.2067H398.652V69.6304H397.371ZM402.35 64.3843L404.952 69.6304H403.465L400.904 64.3843H402.35ZM409.662 69.8129C408.898 69.8129 408.238 69.6266 407.685 69.2541C407.133 68.8778 406.708 68.3531 406.409 67.6802C406.112 67.0036 405.964 66.2167 405.964 65.3195C405.964 64.4224 406.112 63.6317 406.409 62.9474C406.708 62.2593 407.125 61.7233 407.659 61.3393C408.196 60.9515 408.822 60.7577 409.538 60.7577C409.951 60.7577 410.36 60.8338 410.763 60.9858C411.165 61.1378 411.531 61.385 411.863 61.7271C412.193 62.0655 412.456 62.5141 412.652 63.0729C412.849 63.6317 412.947 64.3197 412.947 65.137V65.7072H406.832V64.544H411.707C411.707 64.0498 411.618 63.6088 411.439 63.221C411.263 62.8334 411.012 62.5274 410.685 62.303C410.361 62.0788 409.979 61.9666 409.538 61.9666C409.053 61.9666 408.633 62.0997 408.278 62.3657C407.927 62.6281 407.656 62.9702 407.467 63.3922C407.277 63.8141 407.183 64.2665 407.183 64.7493V65.5248C407.183 66.1863 407.287 66.7469 407.493 67.207C407.703 67.6631 407.994 68.011 408.366 68.2505C408.738 68.4862 409.17 68.604 409.662 68.604C409.982 68.604 410.271 68.5545 410.53 68.4558C410.792 68.3531 411.017 68.201 411.206 67.9995C411.395 67.7942 411.542 67.5396 411.646 67.2354L412.823 67.6004C412.699 68.0414 412.49 68.4292 412.198 68.7636C411.905 69.0944 411.544 69.3528 411.114 69.5392C410.683 69.7216 410.2 69.8129 409.662 69.8129ZM420.332 62.8334L419.237 63.1755C419.169 62.974 419.067 62.7782 418.933 62.5881C418.802 62.3943 418.623 62.2345 418.396 62.1092C418.168 61.9837 417.878 61.921 417.523 61.921C417.038 61.921 416.633 62.0445 416.31 62.2917C415.989 62.5349 415.829 62.8447 415.829 63.221C415.829 63.5556 415.939 63.8198 416.159 64.0137C416.381 64.2075 416.724 64.3692 417.193 64.4984L418.37 64.8177C419.08 65.0078 419.608 65.2985 419.956 65.6901C420.303 66.0779 420.478 66.5777 420.478 67.1899C420.478 67.6917 420.347 68.1403 420.085 68.5356C419.826 68.931 419.465 69.2426 419.001 69.4707C418.535 69.6989 417.995 69.8129 417.379 69.8129C416.57 69.8129 415.9 69.619 415.37 69.2313C414.839 68.8435 414.503 68.2771 414.362 67.532L415.519 67.2126C415.63 67.684 415.838 68.0376 416.144 68.2733C416.454 68.509 416.859 68.6268 417.358 68.6268C417.926 68.6268 418.377 68.4938 418.711 68.2277C419.048 67.9578 419.218 67.6346 419.218 67.2582C419.218 66.9542 419.121 66.6994 418.928 66.4941C418.736 66.285 418.44 66.1292 418.04 66.0266L416.717 65.6845C415.991 65.4943 415.457 65.1998 415.116 64.8006C414.779 64.3976 414.61 63.894 414.61 63.2895C414.61 62.7953 414.736 62.3582 414.988 61.978C415.242 61.5979 415.588 61.2994 416.025 61.0828C416.466 60.8661 416.966 60.7577 417.523 60.7577C418.309 60.7577 418.925 60.9478 419.372 61.328C419.823 61.7081 420.143 62.2099 420.332 62.8334ZM422.225 72.9148V60.8717H423.402V62.2631H423.548C423.637 62.111 423.761 61.9172 423.918 61.6815C424.08 61.442 424.311 61.2291 424.611 61.0428C424.914 60.8528 425.324 60.7577 425.84 60.7577C426.508 60.7577 427.097 60.9421 427.606 61.3108C428.116 61.6795 428.514 62.2023 428.8 62.8789C429.086 63.5556 429.228 64.3539 429.228 65.2739C429.228 66.2014 429.086 67.0055 428.8 67.6859C428.514 68.3625 428.117 68.8872 427.611 69.2597C427.106 69.6284 426.522 69.8129 425.861 69.8129C425.351 69.8129 424.944 69.7197 424.637 69.5335C424.331 69.3434 424.095 69.1286 423.929 68.8891C423.764 68.6458 423.637 68.4443 423.548 68.2847H423.444V72.9148H422.225ZM423.423 65.2511C423.423 65.9125 423.511 66.4961 423.687 67.0017C423.862 67.5035 424.119 67.8969 424.457 68.182C424.793 68.4634 425.207 68.604 425.696 68.604C426.205 68.604 426.631 68.4558 426.972 68.1592C427.315 67.8589 427.574 67.456 427.745 66.9504C427.921 66.4409 428.009 65.8745 428.009 65.2511C428.009 64.6353 427.923 64.0802 427.751 63.586C427.582 63.088 427.326 62.6946 426.982 62.4057C426.641 62.113 426.212 61.9666 425.696 61.9666C425.199 61.9666 424.783 62.1054 424.446 62.3828C424.109 62.6565 423.854 63.0405 423.682 63.5347C423.509 64.0251 423.423 64.5972 423.423 65.2511ZM434.223 69.8129C433.507 69.8129 432.878 69.6247 432.338 69.2483C431.801 68.872 431.38 68.3454 431.078 67.6689C430.778 66.9921 430.628 66.2014 430.628 65.2967C430.628 64.3843 430.778 63.588 431.078 62.9075C431.38 62.227 431.801 61.6986 432.338 61.3222C432.878 60.9459 433.507 60.7577 434.223 60.7577C434.939 60.7577 435.566 60.9459 436.103 61.3222C436.643 61.6986 437.064 62.227 437.363 62.9075C437.666 63.588 437.818 64.3843 437.818 65.2967C437.818 66.2014 437.666 66.9921 437.363 67.6689C437.064 68.3454 436.643 68.872 436.103 69.2483C435.566 69.6247 434.939 69.8129 434.223 69.8129ZM434.223 68.604C434.767 68.604 435.215 68.4501 435.566 68.1421C435.917 67.8341 436.177 67.4294 436.346 66.9276C436.514 66.4258 436.598 65.8821 436.598 65.2967C436.598 64.7113 436.514 64.1658 436.346 63.6601C436.177 63.1545 435.917 62.7459 435.566 62.4342C435.215 62.1225 434.767 61.9666 434.223 61.9666C433.679 61.9666 433.232 62.1225 432.88 62.4342C432.529 62.7459 432.269 63.1545 432.1 63.6601C431.932 64.1658 431.847 64.7113 431.847 65.2967C431.847 65.8821 431.932 66.4258 432.1 66.9276C432.269 67.4294 432.529 67.8341 432.88 68.1421C433.232 68.4501 433.679 68.604 434.223 68.604ZM440.81 64.3615V69.6304H439.591V60.8717H440.768V62.2403H440.872C441.058 61.7955 441.34 61.4382 441.719 61.1683C442.097 60.8945 442.586 60.7577 443.186 60.7577C443.723 60.7577 444.192 60.8794 444.595 61.1227C444.998 61.3622 445.311 61.7271 445.536 62.2174C445.759 62.7041 445.871 63.3199 445.871 64.065V69.6304H444.653V64.1563C444.653 63.4682 444.49 62.9321 444.166 62.5482C443.843 62.1604 443.399 61.9666 442.835 61.9666C442.445 61.9666 442.097 62.0597 441.791 62.246C441.488 62.4323 441.248 62.7041 441.073 63.0614C440.897 63.4188 440.81 63.8521 440.81 64.3615ZM453.63 62.8334L452.535 63.1755C452.467 62.974 452.365 62.7782 452.231 62.5881C452.1 62.3943 451.921 62.2345 451.694 62.1092C451.466 61.9837 451.175 61.921 450.821 61.921C450.335 61.921 449.931 62.0445 449.607 62.2917C449.287 62.5349 449.127 62.8447 449.127 63.221C449.127 63.5556 449.237 63.8198 449.457 64.0137C449.677 64.2075 450.022 64.3692 450.49 64.4984L451.668 64.8177C452.377 65.0078 452.905 65.2985 453.253 65.6901C453.601 66.0779 453.775 66.5777 453.775 67.1899C453.775 67.6917 453.644 68.1403 453.382 68.5356C453.124 68.931 452.763 69.2426 452.297 69.4707C451.833 69.6989 451.293 69.8129 450.676 69.8129C449.867 69.8129 449.197 69.619 448.667 69.2313C448.137 68.8435 447.801 68.2771 447.66 67.532L448.817 67.2126C448.927 67.684 449.135 68.0376 449.442 68.2733C449.751 68.509 450.156 68.6268 450.655 68.6268C451.223 68.6268 451.675 68.4938 452.009 68.2277C452.346 67.9578 452.514 67.6346 452.514 67.2582C452.514 66.9542 452.418 66.6994 452.226 66.4941C452.032 66.285 451.736 66.1292 451.337 66.0266L450.015 65.6845C449.289 65.4943 448.755 65.1998 448.414 64.8006C448.077 64.3976 447.908 63.894 447.908 63.2895C447.908 62.7953 448.034 62.3582 448.285 61.978C448.54 61.5979 448.886 61.2994 449.323 61.0828C449.764 60.8661 450.263 60.7577 450.821 60.7577C451.605 60.7577 452.223 60.9478 452.669 61.328C453.121 61.7081 453.441 62.2099 453.63 62.8334ZM458.848 69.8129C458.084 69.8129 457.425 69.6266 456.87 69.2541C456.32 68.8778 455.894 68.3531 455.595 67.6802C455.298 67.0036 455.151 66.2167 455.151 65.3195C455.151 64.4224 455.298 63.6317 455.595 62.9474C455.894 62.2593 456.31 61.7233 456.844 61.3393C457.381 60.9515 458.008 60.7577 458.725 60.7577C459.138 60.7577 459.545 60.8338 459.948 60.9858C460.351 61.1378 460.718 61.385 461.048 61.7271C461.379 62.0655 461.643 62.5141 461.839 63.0729C462.035 63.6317 462.133 64.3197 462.133 65.137V65.7072H456.018V64.544H460.894C460.894 64.0498 460.804 63.6088 460.625 63.221C460.449 62.8334 460.198 62.5274 459.871 62.303C459.547 62.0788 459.165 61.9666 458.725 61.9666C458.239 61.9666 457.819 62.0997 457.464 62.3657C457.113 62.6281 456.843 62.9702 456.653 63.3922C456.464 63.8141 456.37 64.2665 456.37 64.7493V65.5248C456.37 66.1863 456.472 66.7469 456.679 67.207C456.889 67.6631 457.18 68.011 457.552 68.2505C457.924 68.4862 458.356 68.604 458.848 68.604C459.168 68.604 459.458 68.5545 459.716 68.4558C459.977 68.3531 460.203 68.201 460.393 67.9995C460.582 67.7942 460.729 67.5396 460.831 67.2354L462.009 67.6004C461.885 68.0414 461.677 68.4292 461.384 68.7636C461.092 69.0944 460.731 69.3528 460.299 69.5392C459.869 69.7216 459.385 69.8129 458.848 69.8129ZM471.353 60.8717V62.0123H467.242V60.8717H471.353ZM468.44 58.7733H469.659V67.1214C469.659 67.5015 469.709 67.7866 469.809 67.9767C469.912 68.163 470.043 68.2884 470.202 68.3531C470.364 68.4139 470.534 68.4443 470.713 68.4443C470.847 68.4443 470.957 68.4367 471.043 68.4215C471.129 68.4026 471.198 68.3873 471.25 68.3758L471.498 69.5847C471.415 69.619 471.3 69.6532 471.152 69.6874C471.004 69.7255 470.816 69.7444 470.589 69.7444C470.244 69.7444 469.907 69.6627 469.576 69.4993C469.249 69.3357 468.978 69.0867 468.761 68.7523C468.547 68.4177 468.44 67.9957 468.44 67.4864V58.7733ZM476.237 69.8129C475.52 69.8129 474.892 69.6247 474.352 69.2483C473.815 68.872 473.395 68.3454 473.092 67.6689C472.792 66.9921 472.642 66.2014 472.642 65.2967C472.642 64.3843 472.792 63.588 473.092 62.9075C473.395 62.227 473.815 61.6986 474.352 61.3222C474.892 60.9459 475.52 60.7577 476.237 60.7577C476.953 60.7577 477.579 60.9459 478.117 61.3222C478.658 61.6986 479.077 62.227 479.377 62.9075C479.68 63.588 479.832 64.3843 479.832 65.2967C479.832 66.2014 479.68 66.9921 479.377 67.6689C479.077 68.3454 478.658 68.872 478.117 69.2483C477.579 69.6247 476.953 69.8129 476.237 69.8129ZM476.237 68.604C476.781 68.604 477.228 68.4501 477.579 68.1421C477.931 67.8341 478.191 67.4294 478.36 66.9276C478.528 66.4258 478.613 65.8821 478.613 65.2967C478.613 64.7113 478.528 64.1658 478.36 63.6601C478.191 63.1545 477.931 62.7459 477.579 62.4342C477.228 62.1225 476.781 61.9666 476.237 61.9666C475.693 61.9666 475.245 62.1225 474.894 62.4342C474.543 62.7459 474.283 63.1545 474.114 63.6601C473.946 64.1658 473.861 64.7113 473.861 65.2967C473.861 65.8821 473.946 66.4258 474.114 66.9276C474.283 67.4294 474.543 67.8341 474.894 68.1421C475.245 68.4501 475.693 68.604 476.237 68.604ZM494.285 61.6016H493.004C492.928 61.1949 492.795 60.8375 492.606 60.5296C492.42 60.2217 492.193 59.9632 491.925 59.7541C491.659 59.5412 491.365 59.3816 491.041 59.2751C490.718 59.1687 490.38 59.1155 490.029 59.1155C489.389 59.1155 488.808 59.2942 488.289 59.6515C487.771 60.0089 487.36 60.5353 487.054 61.2309C486.751 61.9267 486.6 62.7801 486.6 63.7913C486.6 64.8025 486.751 65.6559 487.054 66.3516C487.36 67.0473 487.771 67.5738 488.289 67.9312C488.808 68.2884 489.389 68.4671 490.029 68.4671C490.38 68.4671 490.718 68.4139 491.041 68.3075C491.365 68.201 491.659 68.0432 491.925 67.8341C492.193 67.6213 492.42 67.3609 492.606 67.0529C492.795 66.7413 492.928 66.3839 493.004 65.981H494.285C494.188 66.5777 494.013 67.1119 493.758 67.5833C493.503 68.0547 493.186 68.4558 492.808 68.7865C492.429 69.1133 492.004 69.3623 491.532 69.5335C491.064 69.7045 490.563 69.79 490.029 69.79C489.127 69.79 488.324 69.5468 487.622 69.0601C486.92 68.5736 486.367 67.8817 485.964 66.9846C485.562 66.0874 485.36 65.023 485.36 63.7913C485.36 62.5596 485.562 61.4952 485.964 60.598C486.367 59.7009 486.92 59.009 487.622 58.5224C488.324 58.0358 489.127 57.7926 490.029 57.7926C490.563 57.7926 491.064 57.8781 491.532 58.0491C492.004 58.2202 492.429 58.4711 492.808 58.8018C493.186 59.1288 493.503 59.5279 493.758 59.9993C494.013 60.467 494.188 61.001 494.285 61.6016ZM497.32 57.9522V69.6304H496.102V57.9522H497.32ZM501.8 69.8357C501.297 69.8357 500.841 69.7311 500.432 69.522C500.021 69.3091 499.696 69.0031 499.455 68.604C499.214 68.201 499.094 67.7144 499.094 67.1442C499.094 66.6424 499.183 66.2356 499.363 65.924C499.541 65.6084 499.78 65.3613 500.081 65.1827C500.38 65.004 500.71 64.871 501.072 64.7834C501.437 64.6923 501.804 64.62 502.172 64.5668C502.654 64.4984 503.044 64.447 503.345 64.4129C503.647 64.3749 503.868 64.3121 504.005 64.2246C504.147 64.1372 504.217 63.9851 504.217 63.7685V63.7228C504.217 63.1603 504.078 62.723 503.799 62.4114C503.523 62.0997 503.105 61.9438 502.544 61.9438C501.962 61.9438 501.506 62.0844 501.176 62.3657C500.845 62.6471 500.613 62.9474 500.478 63.2667L499.321 62.8105C499.528 62.2784 499.803 61.864 500.147 61.5675C500.495 61.2671 500.874 61.058 501.284 60.9402C501.697 60.8185 502.103 60.7577 502.502 60.7577C502.758 60.7577 503.05 60.7919 503.381 60.8604C503.714 60.9249 504.036 61.0599 504.346 61.2652C504.66 61.4705 504.92 61.7803 505.126 62.1946C505.333 62.609 505.436 63.164 505.436 63.8598V69.6304H504.217V68.4443H504.155C504.073 68.6344 503.935 68.8377 503.743 69.0545C503.549 69.2712 503.293 69.4555 502.973 69.6076C502.653 69.7597 502.261 69.8357 501.8 69.8357ZM501.986 68.6268C502.468 68.6268 502.874 68.5223 503.205 68.3132C503.539 68.1041 503.79 67.8341 503.959 67.5035C504.131 67.1727 504.217 66.8249 504.217 66.46V65.2282C504.165 65.2967 504.052 65.3594 503.877 65.4164C503.704 65.4697 503.505 65.5171 503.277 65.559C503.054 65.597 502.835 65.6313 502.622 65.6617C502.412 65.6883 502.241 65.7111 502.11 65.73C501.794 65.7757 501.498 65.8498 501.221 65.9524C500.95 66.0513 500.73 66.2014 500.561 66.403C500.395 66.6006 500.312 66.8705 500.312 67.2126C500.312 67.6802 500.469 68.0338 500.783 68.2733C501.1 68.509 501.501 68.6268 501.986 68.6268ZM507.574 69.6304V60.8717H508.792V69.6304H507.574ZM508.193 59.412C507.956 59.412 507.751 59.3226 507.579 59.1439C507.41 58.9653 507.325 58.7505 507.325 58.4997C507.325 58.2487 507.41 58.0339 507.579 57.8553C507.751 57.6766 507.956 57.5873 508.193 57.5873C508.431 57.5873 508.634 57.6766 508.803 57.8553C508.975 58.0339 509.061 58.2487 509.061 58.4997C509.061 58.7505 508.975 58.9653 508.803 59.1439C508.634 59.3226 508.431 59.412 508.193 59.412ZM510.937 69.6304V60.8717H512.116V62.2403H512.218C512.384 61.7727 512.651 61.4096 513.019 61.1511C513.387 60.8889 513.83 60.7577 514.346 60.7577C514.869 60.7577 515.305 60.8889 515.653 61.1511C516.004 61.4096 516.278 61.7727 516.474 62.2403H516.557C516.76 61.7879 517.065 61.4287 517.471 61.1626C517.877 60.8927 518.364 60.7577 518.932 60.7577C519.642 60.7577 520.222 61.0029 520.673 61.4933C521.124 61.9799 521.35 62.7383 521.35 63.7685V69.6304H520.131V63.7685C520.131 63.1223 519.97 62.6604 519.65 62.3828C519.33 62.1054 518.953 61.9666 518.519 61.9666C517.961 61.9666 517.53 62.1529 517.223 62.5254C516.917 62.8942 516.763 63.3618 516.763 63.9281V69.6304H515.524V63.6317C515.524 63.1336 515.377 62.7326 515.085 62.4285C514.793 62.1205 514.415 61.9666 513.954 61.9666C513.637 61.9666 513.341 62.0597 513.065 62.246C512.794 62.4323 512.573 62.6908 512.404 63.0215C512.239 63.3485 512.156 63.7266 512.156 64.1563V69.6304H510.937Z" fill="#0E121B"/>
</g>
</g>
<defs>
<filter id="filter0_d_1080_53567" x="-14.2979" y="27.5313" width="146.156" height="118.003" filterUnits="userSpaceOnUse" color-interpolation-filters="sRGB">
<feFlood flood-opacity="0" result="BackgroundImageFix"/>
<feColorMatrix in="SourceAlpha" type="matrix" values="0 0 0 0 0 0 0 0 0 0 0 0 0 0 0 0 0 0 127 0" result="hardAlpha"/>
<feOffset dy="0.396484"/>
<feGaussianBlur stdDeviation="0.396484"/>
<feComposite in2="hardAlpha" operator="out"/>
<feColorMatrix type="matrix" values="0 0 0 0 0.0392157 0 0 0 0 0.0509804 0 0 0 0 0.0784314 0 0 0 0.03 0"/>
<feBlend mode="normal" in2="BackgroundImageFix" result="effect1_dropShadow_1080_53567"/>
<feBlend mode="normal" in="SourceGraphic" in2="effect1_dropShadow_1080_53567" result="shape"/>
</filter>
<filter id="filter1_d_1080_53567" x="28.2944" y="215.634" width="146.156" height="118.003" filterUnits="userSpaceOnUse" color-interpolation-filters="sRGB">
<feFlood flood-opacity="0" result="BackgroundImageFix"/>
<feColorMatrix in="SourceAlpha" type="matrix" values="0 0 0 0 0 0 0 0 0 0 0 0 0 0 0 0 0 0 127 0" result="hardAlpha"/>
<feOffset dy="0.396484"/>
<feGaussianBlur stdDeviation="0.396484"/>
<feComposite in2="hardAlpha" operator="out"/>
<feColorMatrix type="matrix" values="0 0 0 0 0.0392157 0 0 0 0 0.0509804 0 0 0 0 0.0784314 0 0 0 0.03 0"/>
<feBlend mode="normal" in2="BackgroundImageFix" result="effect1_dropShadow_1080_53567"/>
<feBlend mode="normal" in="SourceGraphic" in2="effect1_dropShadow_1080_53567" result="shape"/>
</filter>
<filter id="filter2_d_1080_53567" x="295.275" y="157.138" width="146.156" height="118.003" filterUnits="userSpaceOnUse" color-interpolation-filters="sRGB">
<feFlood flood-opacity="0" result="BackgroundImageFix"/>
<feColorMatrix in="SourceAlpha" type="matrix" values="0 0 0 0 0 0 0 0 0 0 0 0 0 0 0 0 0 0 127 0" result="hardAlpha"/>
<feOffset dy="0.396484"/>
<feGaussianBlur stdDeviation="0.396484"/>
<feComposite in2="hardAlpha" operator="out"/>
<feColorMatrix type="matrix" values="0 0 0 0 0.0392157 0 0 0 0 0.0509804 0 0 0 0 0.0784314 0 0 0 0.03 0"/>
<feBlend mode="normal" in2="BackgroundImageFix" result="effect1_dropShadow_1080_53567"/>
<feBlend mode="normal" in="SourceGraphic" in2="effect1_dropShadow_1080_53567" result="shape"/>
</filter>
<filter id="filter3_d_1080_53567" x="152.786" y="140.208" width="34.3206" height="37.4775" filterUnits="userSpaceOnUse" color-interpolation-filters="sRGB">
<feFlood flood-opacity="0" result="BackgroundImageFix"/>
<feColorMatrix in="SourceAlpha" type="matrix" values="0 0 0 0 0 0 0 0 0 0 0 0 0 0 0 0 0 0 127 0" result="hardAlpha"/>
<feOffset dy="1"/>
<feGaussianBlur stdDeviation="1"/>
<feComposite in2="hardAlpha" operator="out"/>
<feColorMatrix type="matrix" values="0 0 0 0 0.0392157 0 0 0 0 0.0509804 0 0 0 0 0.0784314 0 0 0 0.03 0"/>
<feBlend mode="normal" in2="BackgroundImageFix" result="effect1_dropShadow_1080_53567"/>
<feBlend mode="normal" in="SourceGraphic" in2="effect1_dropShadow_1080_53567" result="shape"/>
</filter>
<filter id="filter4_d_1080_53567" x="195.574" y="138.595" width="37.2427" height="40.7029" filterUnits="userSpaceOnUse" color-interpolation-filters="sRGB">
<feFlood flood-opacity="0" result="BackgroundImageFix"/>
<feColorMatrix in="SourceAlpha" type="matrix" values="0 0 0 0 0 0 0 0 0 0 0 0 0 0 0 0 0 0 127 0" result="hardAlpha"/>
<feOffset dy="1"/>
<feGaussianBlur stdDeviation="1"/>
<feComposite in2="hardAlpha" operator="out"/>
<feColorMatrix type="matrix" values="0 0 0 0 0.0392157 0 0 0 0 0.0509804 0 0 0 0 0.0784314 0 0 0 0.03 0"/>
<feBlend mode="normal" in2="BackgroundImageFix" result="effect1_dropShadow_1080_53567"/>
<feBlend mode="normal" in="SourceGraphic" in2="effect1_dropShadow_1080_53567" result="shape"/>
</filter>
<filter id="filter5_d_1080_53567" x="241.283" y="138.595" width="37.2427" height="40.7029" filterUnits="userSpaceOnUse" color-interpolation-filters="sRGB">
<feFlood flood-opacity="0" result="BackgroundImageFix"/>
<feColorMatrix in="SourceAlpha" type="matrix" values="0 0 0 0 0 0 0 0 0 0 0 0 0 0 0 0 0 0 127 0" result="hardAlpha"/>
<feOffset dy="1"/>
<feGaussianBlur stdDeviation="1"/>
<feComposite in2="hardAlpha" operator="out"/>
<feColorMatrix type="matrix" values="0 0 0 0 0.0392157 0 0 0 0 0.0509804 0 0 0 0 0.0784314 0 0 0 0.03 0"/>
<feBlend mode="normal" in2="BackgroundImageFix" result="effect1_dropShadow_1080_53567"/>
<feBlend mode="normal" in="SourceGraphic" in2="effect1_dropShadow_1080_53567" result="shape"/>
</filter>
<linearGradient id="paint0_linear_1080_53567" x1="169.947" y1="148.09" x2="169.947" y2="167.804" gradientUnits="userSpaceOnUse">
<stop stop-color="#AD1F8C"/>
<stop offset="1" stop-color="#FDCF18"/>
</linearGradient>
<clipPath id="clip0_1080_53567">
<rect width="428" height="359" fill="white" transform="translate(0 0.8125)"/>
</clipPath>
</defs>
</svg>
