<svg width="109" height="48" viewBox="0 0 109 48" fill="none" xmlns="http://www.w3.org/2000/svg">
<path d="M12.5659 11.4401C11.7135 11.7006 11.0593 12.5223 7.94696 17.3519L5.27075 21.5203V27.4321C5.27075 32.9231 5.29058 33.4041 5.6474 33.9251C6.40071 35.0473 6.57912 35.0674 13.339 35.0674C18.7708 35.0674 19.6232 35.0273 20.0395 34.7467C20.773 34.2457 26.3236 28.6746 26.9976 27.7728L27.5725 26.9912V19.9371C27.5725 13.0033 27.5725 12.863 27.1364 12.3219C26.3236 11.2798 25.947 11.2197 19.306 11.2397C15.9558 11.2397 12.9227 11.3399 12.5659 11.4401ZM23.0725 14.1255C23.3699 14.2457 23.4095 14.5463 23.4095 16.2698V18.2738L21.784 18.2137C20.4161 18.1536 20.1386 18.1936 20.1386 18.4341C20.1386 18.6746 20.436 18.7347 21.784 18.6946L23.4095 18.6546V20.6385V22.6225L22.676 22.7828C22.2597 22.863 21.0703 22.9431 20.0395 22.9431C18.513 22.9231 17.9976 22.8429 17.3633 22.5023C15.7774 21.6606 15.2025 20.5383 15.2025 18.3339C15.2025 15.9091 15.8567 14.8269 17.8192 14.1055C18.5725 13.8049 22.339 13.8249 23.0725 14.1255Z" fill="#0E121B"/>
<path d="M41.4888 14.0655C41.3302 14.2258 40.2994 14.3661 38.6144 14.4262C36.2355 14.5264 35.8589 14.6066 34.828 15.1076C32.7862 16.1096 31.9734 18.0535 32.2113 21.3601C32.5879 26.7709 35.1056 30.4984 39.1496 31.5805C40.676 32.0014 41.5681 31.9412 41.9249 31.4202C42.3214 30.8591 42.1628 30.6587 41.3897 30.6587C41.0329 30.6587 40.2994 30.4382 39.7245 30.1777C36.9293 28.8551 35.2641 25.3481 35.2245 20.7388C35.1849 17.1316 36.0571 15.6286 38.1584 15.6286C38.773 15.6286 39.3677 15.7489 39.6254 15.9493C40.1606 16.33 40.7752 17.4923 40.9536 18.4943C41.0329 18.9152 41.1716 19.2759 41.2509 19.336C41.6871 19.6166 42.4007 15.8691 42.1628 14.5464C42.0241 13.7849 41.8655 13.6847 41.4888 14.0655Z" fill="#0E121B"/>
<path d="M93.883 14.1454C93.5659 14.3859 93.1297 14.426 91.8015 14.3258C90.3544 14.2256 90.0174 14.2456 89.4227 14.5863C88.154 15.2877 87.9359 15.9691 87.9359 19.0352V21.7406L87.4205 21.8408C86.9844 21.921 86.9249 22.0011 87.0637 22.3819C87.143 22.6224 87.4205 22.8628 87.6584 22.943C88.0945 23.0833 88.0945 23.1033 87.9557 26.8308C87.8963 28.8749 87.7773 30.8588 87.7178 31.1995L87.5989 31.8608H89.502C90.5526 31.8608 91.4051 31.8208 91.4051 31.7807C91.4051 31.7206 91.2068 31.3398 90.9689 30.919C90.5328 30.1975 90.513 29.937 90.513 26.5502V22.943H91.6231C92.7729 22.943 93.2685 22.7025 93.4469 22.0412C93.546 21.6805 93.4469 21.6404 92.2971 21.6404C90.5923 21.6404 90.513 21.5202 90.513 18.7546C90.513 16.0693 90.7707 15.428 91.9007 15.428C92.7927 15.428 93.1297 15.949 93.4667 17.8729L93.7245 19.3358L94.0813 18.5342C94.4778 17.6524 94.7355 14.6665 94.4579 14.1654C94.2993 13.8849 94.2399 13.8849 93.883 14.1454Z" fill="#0E121B"/>
<path d="M74.5549 14.5061C74.5549 14.5662 74.7532 14.927 74.9911 15.3278C75.6254 16.43 75.8633 20.8188 75.5858 26.5101C75.4668 28.955 75.3082 31.1594 75.2289 31.3999C75.11 31.8608 75.1298 31.8608 76.6959 31.8608H78.3016L78.1629 30.7987C77.9844 29.436 77.9844 18.2135 78.1629 16.0693L78.3016 14.426H76.4382C75.4074 14.426 74.5549 14.466 74.5549 14.5061Z" fill="#0E121B"/>
<path d="M82.088 14.6869C81.6717 14.8873 81.5924 15.1077 81.5329 15.9293C81.3942 18.4344 83.6739 19.3161 84.5858 17.1318C84.9823 16.1297 84.9228 15.4684 84.3677 14.9273C83.8325 14.3662 82.9008 14.266 82.088 14.6869Z" fill="#0E121B"/>
<path d="M61.6098 19.7768C61.5305 19.897 60.5195 20.0173 59.3301 20.0774C57.6847 20.1375 56.9909 20.2578 56.3962 20.5784C54.8301 21.38 54.3147 23.0433 55.1275 24.6465C55.5438 25.4882 56.1186 25.9692 58.0416 27.1315C58.7156 27.5323 59.4689 28.1135 59.6869 28.394C60.5592 29.5163 59.9248 30.6586 58.4182 30.6586C57.6649 30.6586 57.4667 30.5584 56.9512 29.9772C56.6142 29.5964 56.2971 29.0153 56.2178 28.6746C56.0592 27.893 55.8213 27.893 55.1076 28.6746C54.4534 29.396 54.1957 30.1776 54.4733 30.6185C55.0482 31.5604 57.6649 32.1215 59.4292 31.6806C61.2332 31.2197 62.264 30.0173 62.264 28.394C62.264 27.0914 61.6693 26.3499 59.4094 24.9271C56.8918 23.3439 56.3764 22.5022 57.427 21.6606C58.5966 20.7387 60.242 21.4802 60.7178 23.1034C60.8367 23.5644 61.0151 24.0253 61.0944 24.1255C61.3521 24.4261 61.927 22.9832 62.0063 21.7407C62.1054 20.5584 61.8477 19.376 61.6098 19.7768Z" fill="#0E121B"/>
<path d="M46.3059 20.3378C45.7707 20.4981 45.0768 20.6985 44.7795 20.7586C44.2442 20.8789 44.2244 20.939 44.2244 22.2216C44.2244 23.464 44.5614 24.446 44.9777 24.446C45.057 24.446 45.2751 24.0252 45.4931 23.5242C45.6914 23.0232 46.1473 22.3017 46.5041 21.921C47.0989 21.2997 47.2574 21.2196 48.0306 21.2797C49.0416 21.3598 49.2993 21.7406 49.4975 23.4841L49.6165 24.6063L48.4072 24.7466C46.7222 24.947 44.8786 25.9089 44.1649 26.9711C42.9953 28.6745 43.59 31.0793 45.3345 31.6604C46.3852 32.0212 47.8918 31.7807 49.0218 31.0793L49.9535 30.4781L50.0922 31.1795L50.2112 31.8608H51.8367C53.383 31.8608 53.4226 31.8408 53.0262 31.5001C52.2134 30.8388 52.0944 30.2977 51.9755 26.3498C51.8367 22.1815 51.6385 21.3799 50.5284 20.5783C49.8345 20.0572 47.6539 19.937 46.3059 20.3378ZM49.5768 26.9911C49.557 29.1354 48.427 30.7386 47.0196 30.6184C45.1363 30.458 45.6715 27.432 47.7729 26.3097C48.2486 26.0492 48.8632 25.8488 49.1209 25.8488C49.5372 25.8488 49.5768 25.929 49.5768 26.9911Z" fill="#0E121B"/>
<path d="M67.5373 20.3381C65.4756 21.0796 64.4051 22.743 64.2862 25.4484C64.1078 29.276 65.6144 31.5606 68.5087 31.8211C70.5902 32.0015 72.2752 31.0395 72.5527 29.5365C72.632 29.0957 72.632 28.5145 72.5329 28.2339C72.3545 27.753 72.3346 27.753 71.958 28.4945C71.7399 28.9153 71.2642 29.5566 70.8875 29.9574C70.2928 30.5586 70.0351 30.6588 69.2818 30.6588C68.1518 30.6588 67.5571 30.1177 67.1408 28.6347C66.9624 28.0536 66.8435 27.5526 66.8831 27.5325C66.9029 27.4925 67.5373 27.3722 68.2906 27.252C71.165 26.791 72.7708 25.2079 72.7708 22.8432C72.7708 20.7189 70.0747 19.4163 67.5373 20.3381ZM69.9161 21.6608C70.4117 22.2019 70.3919 23.9454 69.8765 24.8271C69.48 25.5285 68.1915 26.25 67.3589 26.25C66.8435 26.25 66.8236 26.2099 66.8236 25.1878C66.8236 23.8251 67.2598 22.3422 67.8346 21.7209C68.4095 21.0997 69.4007 21.0796 69.9161 21.6608Z" fill="#0E121B"/>
<path d="M94.6761 20.5786C95.1122 21.6607 95.2113 22.4623 95.2906 25.7489C95.4096 29.777 95.5285 30.3581 96.3413 31.1397C97.4514 32.2219 99.1364 32.0415 100.603 30.6788L101.178 30.1577L101.04 31.2198C100.821 32.9032 100.167 34.4864 99.3148 35.308C98.5814 36.0094 98.5814 36.0295 98.9382 36.3701C99.295 36.7108 99.3545 36.6908 100.227 36.1898C101.377 35.5084 102.368 34.1457 102.923 32.4623C103.28 31.3802 103.379 30.4383 103.517 26.8511C103.617 24.4864 103.716 22.0214 103.736 21.3802L103.795 20.2379H102.189H100.564L100.881 21.0796C101.079 21.6607 101.218 22.9633 101.277 25.0876L101.357 28.2539L100.564 29.0555C100.048 29.5966 99.5924 29.8571 99.2554 29.8571C97.7289 29.8571 97.4514 28.8952 97.61 23.9253L97.7289 20.2379H96.1232C94.6959 20.2379 94.5571 20.278 94.6761 20.5786Z" fill="#0E121B"/>
<path d="M81.2752 21.4801C81.7708 22.5021 81.7906 22.6825 81.7906 25.949C81.7906 27.8127 81.7311 29.917 81.6518 30.5983L81.4932 31.8608H83.0593H84.6254L84.4073 30.9991C84.2884 30.5382 84.2091 28.3538 84.2091 26.1494C84.2091 23.945 84.2884 21.7606 84.4073 21.2797L84.6254 20.438H82.6827H80.7598L81.2752 21.4801Z" fill="#0E121B"/>
</svg>
